<?xml version="1.0" encoding="utf-8"?>
<svg xmlns="http://www.w3.org/2000/svg" xmlns:xlink="http://www.w3.org/1999/xlink" width="600" height="400" viewBox="0 0 2400 1600">
<defs>
  <clipPath id="clip580">
    <rect x="0" y="0" width="2400" height="1600"/>
  </clipPath>
</defs>
<path clip-path="url(#clip580)" d="M0 1600 L2400 1600 L2400 0 L0 0  Z" fill="#ffffff" fill-rule="evenodd" fill-opacity="1"/>
<defs>
  <clipPath id="clip581">
    <rect x="124" y="47" width="2229" height="1423"/>
  </clipPath>
</defs>
<path clip-path="url(#clip580)" d="M509.646 1450.74 L2352.76 1450.74 L2352.76 47.2441 L509.646 47.2441  Z" fill="#ffffff" fill-rule="evenodd" fill-opacity="1"/>
<defs>
  <clipPath id="clip582">
    <rect x="509" y="47" width="1844" height="1404"/>
  </clipPath>
</defs>
<polyline clip-path="url(#clip582)" style="stroke:#000000; stroke-linecap:round; stroke-linejoin:round; stroke-width:2; stroke-opacity:0.1; fill:none" points="509.646,1450.74 509.646,47.2441 "/>
<polyline clip-path="url(#clip582)" style="stroke:#000000; stroke-linecap:round; stroke-linejoin:round; stroke-width:2; stroke-opacity:0.1; fill:none" points="970.424,1450.74 970.424,47.2441 "/>
<polyline clip-path="url(#clip582)" style="stroke:#000000; stroke-linecap:round; stroke-linejoin:round; stroke-width:2; stroke-opacity:0.1; fill:none" points="1431.2,1450.74 1431.2,47.2441 "/>
<polyline clip-path="url(#clip582)" style="stroke:#000000; stroke-linecap:round; stroke-linejoin:round; stroke-width:2; stroke-opacity:0.1; fill:none" points="1891.98,1450.74 1891.98,47.2441 "/>
<polyline clip-path="url(#clip582)" style="stroke:#000000; stroke-linecap:round; stroke-linejoin:round; stroke-width:2; stroke-opacity:0.1; fill:none" points="2352.76,1450.74 2352.76,47.2441 "/>
<polyline clip-path="url(#clip582)" style="stroke:#000000; stroke-linecap:round; stroke-linejoin:round; stroke-width:2; stroke-opacity:0.1; fill:none" points="509.646,1411.02 2352.76,1411.02 "/>
<polyline clip-path="url(#clip582)" style="stroke:#000000; stroke-linecap:round; stroke-linejoin:round; stroke-width:2; stroke-opacity:0.1; fill:none" points="509.646,1097.3 2352.76,1097.3 "/>
<polyline clip-path="url(#clip582)" style="stroke:#000000; stroke-linecap:round; stroke-linejoin:round; stroke-width:2; stroke-opacity:0.1; fill:none" points="509.646,783.573 2352.76,783.573 "/>
<polyline clip-path="url(#clip582)" style="stroke:#000000; stroke-linecap:round; stroke-linejoin:round; stroke-width:2; stroke-opacity:0.1; fill:none" points="509.646,469.849 2352.76,469.849 "/>
<polyline clip-path="url(#clip582)" style="stroke:#000000; stroke-linecap:round; stroke-linejoin:round; stroke-width:2; stroke-opacity:0.1; fill:none" points="509.646,156.125 2352.76,156.125 "/>
<polyline clip-path="url(#clip580)" style="stroke:#000000; stroke-linecap:round; stroke-linejoin:round; stroke-width:4; stroke-opacity:1; fill:none" points="509.646,1450.74 2352.76,1450.74 "/>
<polyline clip-path="url(#clip580)" style="stroke:#000000; stroke-linecap:round; stroke-linejoin:round; stroke-width:4; stroke-opacity:1; fill:none" points="509.646,1450.74 509.646,1431.85 "/>
<polyline clip-path="url(#clip580)" style="stroke:#000000; stroke-linecap:round; stroke-linejoin:round; stroke-width:4; stroke-opacity:1; fill:none" points="970.424,1450.74 970.424,1431.85 "/>
<polyline clip-path="url(#clip580)" style="stroke:#000000; stroke-linecap:round; stroke-linejoin:round; stroke-width:4; stroke-opacity:1; fill:none" points="1431.2,1450.74 1431.2,1431.85 "/>
<polyline clip-path="url(#clip580)" style="stroke:#000000; stroke-linecap:round; stroke-linejoin:round; stroke-width:4; stroke-opacity:1; fill:none" points="1891.98,1450.74 1891.98,1431.85 "/>
<polyline clip-path="url(#clip580)" style="stroke:#000000; stroke-linecap:round; stroke-linejoin:round; stroke-width:4; stroke-opacity:1; fill:none" points="2352.76,1450.74 2352.76,1431.85 "/>
<path clip-path="url(#clip580)" d="M299.024 1532.99 L343.538 1532.99 L343.538 1538.89 L299.024 1538.89 L299.024 1532.99 Z" fill="#000000" fill-rule="nonzero" fill-opacity="1" /><path clip-path="url(#clip580)" d="M359.892 1552.33 L371.35 1552.33 L371.35 1512.78 L358.885 1515.28 L358.885 1508.89 L371.281 1506.39 L378.295 1506.39 L378.295 1552.33 L389.753 1552.33 L389.753 1558.23 L359.892 1558.23 L359.892 1552.33 Z" fill="#000000" fill-rule="nonzero" fill-opacity="1" /><path clip-path="url(#clip580)" d="M403.92 1549.41 L411.246 1549.41 L411.246 1558.23 L403.92 1558.23 L403.92 1549.41 Z" fill="#000000" fill-rule="nonzero" fill-opacity="1" /><path clip-path="url(#clip580)" d="M441.524 1511.01 Q436.107 1511.01 433.364 1516.36 Q430.656 1521.67 430.656 1532.37 Q430.656 1543.02 433.364 1548.37 Q436.107 1553.68 441.524 1553.68 Q446.975 1553.68 449.683 1548.37 Q452.426 1543.02 452.426 1532.37 Q452.426 1521.67 449.683 1516.36 Q446.975 1511.01 441.524 1511.01 M441.524 1505.46 Q450.239 1505.46 454.822 1512.37 Q459.44 1519.24 459.44 1532.37 Q459.44 1545.46 454.822 1552.37 Q450.239 1559.24 441.524 1559.24 Q432.808 1559.24 428.19 1552.37 Q423.607 1545.46 423.607 1532.37 Q423.607 1519.24 428.19 1512.37 Q432.808 1505.46 441.524 1505.46 Z" fill="#000000" fill-rule="nonzero" fill-opacity="1" /><path clip-path="url(#clip580)" d="M514.023 1520.04 L498.155 1535.98 L514.023 1551.84 L509.891 1556.05 L493.954 1540.11 L478.017 1556.05 L473.919 1551.84 L489.753 1535.98 L473.919 1520.04 L478.017 1515.84 L493.954 1531.77 L509.891 1515.84 L514.023 1520.04 Z" fill="#000000" fill-rule="nonzero" fill-opacity="1" /><path clip-path="url(#clip580)" d="M532.565 1552.33 L544.023 1552.33 L544.023 1512.78 L531.558 1515.28 L531.558 1508.89 L543.954 1506.39 L550.968 1506.39 L550.968 1552.33 L562.426 1552.33 L562.426 1558.23 L532.565 1558.23 L532.565 1552.33 Z" fill="#000000" fill-rule="nonzero" fill-opacity="1" /><path clip-path="url(#clip580)" d="M591.592 1511.01 Q586.176 1511.01 583.433 1516.36 Q580.724 1521.67 580.724 1532.37 Q580.724 1543.02 583.433 1548.37 Q586.176 1553.68 591.592 1553.68 Q597.044 1553.68 599.752 1548.37 Q602.495 1543.02 602.495 1532.37 Q602.495 1521.67 599.752 1516.36 Q597.044 1511.01 591.592 1511.01 M591.592 1505.46 Q600.308 1505.46 604.891 1512.37 Q609.509 1519.24 609.509 1532.37 Q609.509 1545.46 604.891 1552.37 Q600.308 1559.24 591.592 1559.24 Q582.877 1559.24 578.259 1552.37 Q573.676 1545.46 573.676 1532.37 Q573.676 1519.24 578.259 1512.37 Q582.877 1505.46 591.592 1505.46 Z" fill="#000000" fill-rule="nonzero" fill-opacity="1" /><path clip-path="url(#clip580)" d="M609.509 1496.61 L645.676 1496.61 L645.676 1501.4 L609.509 1501.4 L609.509 1496.61 Z" fill="#000000" fill-rule="nonzero" fill-opacity="1" /><path clip-path="url(#clip580)" d="M658.964 1512.32 L668.274 1512.32 L668.274 1480.19 L658.146 1482.22 L658.146 1477.03 L668.217 1475 L673.916 1475 L673.916 1512.32 L683.226 1512.32 L683.226 1517.12 L658.964 1517.12 L658.964 1512.32 Z" fill="#000000" fill-rule="nonzero" fill-opacity="1" /><path clip-path="url(#clip580)" d="M694.793 1475 L717.165 1475 L717.165 1479.79 L700.012 1479.79 L700.012 1490.12 Q701.253 1489.7 702.494 1489.5 Q703.736 1489.27 704.977 1489.27 Q712.03 1489.27 716.149 1493.14 Q720.268 1497 720.268 1503.6 Q720.268 1510.4 716.036 1514.18 Q711.804 1517.94 704.103 1517.94 Q701.451 1517.94 698.686 1517.48 Q695.949 1517.03 693.015 1516.13 L693.015 1510.4 Q695.554 1511.79 698.263 1512.46 Q700.971 1513.14 703.99 1513.14 Q708.87 1513.14 711.72 1510.57 Q714.569 1508.01 714.569 1503.6 Q714.569 1499.2 711.72 1496.64 Q708.87 1494.07 703.99 1494.07 Q701.705 1494.07 699.419 1494.58 Q697.162 1495.08 694.793 1496.16 L694.793 1475 Z" fill="#000000" fill-rule="nonzero" fill-opacity="1" /><path clip-path="url(#clip580)" d="M759.097 1532.99 L803.61 1532.99 L803.61 1538.89 L759.097 1538.89 L759.097 1532.99 Z" fill="#000000" fill-rule="nonzero" fill-opacity="1" /><path clip-path="url(#clip580)" d="M818.818 1506.39 L846.353 1506.39 L846.353 1512.3 L825.242 1512.3 L825.242 1525 Q826.77 1524.48 828.298 1524.24 Q829.825 1523.96 831.353 1523.96 Q840.034 1523.96 845.103 1528.72 Q850.172 1533.48 850.172 1541.6 Q850.172 1549.97 844.964 1554.62 Q839.756 1559.24 830.277 1559.24 Q827.013 1559.24 823.61 1558.68 Q820.242 1558.13 816.631 1557.02 L816.631 1549.97 Q819.756 1551.67 823.089 1552.5 Q826.423 1553.34 830.138 1553.34 Q836.145 1553.34 839.652 1550.18 Q843.159 1547.02 843.159 1541.6 Q843.159 1536.18 839.652 1533.02 Q836.145 1529.87 830.138 1529.87 Q827.325 1529.87 824.513 1530.49 Q821.735 1531.12 818.818 1532.43 L818.818 1506.39 Z" fill="#000000" fill-rule="nonzero" fill-opacity="1" /><path clip-path="url(#clip580)" d="M863.992 1549.41 L871.318 1549.41 L871.318 1558.23 L863.992 1558.23 L863.992 1549.41 Z" fill="#000000" fill-rule="nonzero" fill-opacity="1" /><path clip-path="url(#clip580)" d="M901.596 1511.01 Q896.179 1511.01 893.436 1516.36 Q890.728 1521.67 890.728 1532.37 Q890.728 1543.02 893.436 1548.37 Q896.179 1553.68 901.596 1553.68 Q907.047 1553.68 909.755 1548.37 Q912.499 1543.02 912.499 1532.37 Q912.499 1521.67 909.755 1516.36 Q907.047 1511.01 901.596 1511.01 M901.596 1505.46 Q910.311 1505.46 914.894 1512.37 Q919.512 1519.24 919.512 1532.37 Q919.512 1545.46 914.894 1552.37 Q910.311 1559.24 901.596 1559.24 Q892.881 1559.24 888.263 1552.37 Q883.679 1545.46 883.679 1532.37 Q883.679 1519.24 888.263 1512.37 Q892.881 1505.46 901.596 1505.46 Z" fill="#000000" fill-rule="nonzero" fill-opacity="1" /><path clip-path="url(#clip580)" d="M974.095 1520.04 L958.227 1535.98 L974.095 1551.84 L969.963 1556.05 L954.026 1540.11 L938.089 1556.05 L933.991 1551.84 L949.825 1535.98 L933.991 1520.04 L938.089 1515.84 L954.026 1531.77 L969.963 1515.84 L974.095 1520.04 Z" fill="#000000" fill-rule="nonzero" fill-opacity="1" /><path clip-path="url(#clip580)" d="M992.637 1552.33 L1004.1 1552.33 L1004.1 1512.78 L991.63 1515.28 L991.63 1508.89 L1004.03 1506.39 L1011.04 1506.39 L1011.04 1552.33 L1022.5 1552.33 L1022.5 1558.23 L992.637 1558.23 L992.637 1552.33 Z" fill="#000000" fill-rule="nonzero" fill-opacity="1" /><path clip-path="url(#clip580)" d="M1051.66 1511.01 Q1046.25 1511.01 1043.5 1516.36 Q1040.8 1521.67 1040.8 1532.37 Q1040.8 1543.02 1043.5 1548.37 Q1046.25 1553.68 1051.66 1553.68 Q1057.12 1553.68 1059.82 1548.37 Q1062.57 1543.02 1062.57 1532.37 Q1062.57 1521.67 1059.82 1516.36 Q1057.12 1511.01 1051.66 1511.01 M1051.66 1505.46 Q1060.38 1505.46 1064.96 1512.37 Q1069.58 1519.24 1069.58 1532.37 Q1069.58 1545.46 1064.96 1552.37 Q1060.38 1559.24 1051.66 1559.24 Q1042.95 1559.24 1038.33 1552.37 Q1033.75 1545.46 1033.75 1532.37 Q1033.75 1519.24 1038.33 1512.37 Q1042.95 1505.46 1051.66 1505.46 Z" fill="#000000" fill-rule="nonzero" fill-opacity="1" /><path clip-path="url(#clip580)" d="M1069.58 1496.61 L1105.75 1496.61 L1105.75 1501.4 L1069.58 1501.4 L1069.58 1496.61 Z" fill="#000000" fill-rule="nonzero" fill-opacity="1" /><path clip-path="url(#clip580)" d="M1119.04 1512.32 L1128.35 1512.32 L1128.35 1480.19 L1118.22 1482.22 L1118.22 1477.03 L1128.29 1475 L1133.99 1475 L1133.99 1512.32 L1143.3 1512.32 L1143.3 1517.12 L1119.04 1517.12 L1119.04 1512.32 Z" fill="#000000" fill-rule="nonzero" fill-opacity="1" /><path clip-path="url(#clip580)" d="M1167.7 1493.79 Q1163.86 1493.79 1161.61 1496.41 Q1159.38 1499.03 1159.38 1503.6 Q1159.38 1508.15 1161.61 1510.8 Q1163.86 1513.42 1167.7 1513.42 Q1171.54 1513.42 1173.77 1510.8 Q1176.02 1508.15 1176.02 1503.6 Q1176.02 1499.03 1173.77 1496.41 Q1171.54 1493.79 1167.7 1493.79 M1179.01 1475.93 L1179.01 1481.12 Q1176.87 1480.1 1174.67 1479.57 Q1172.5 1479.03 1170.35 1479.03 Q1164.71 1479.03 1161.72 1482.84 Q1158.76 1486.65 1158.33 1494.35 Q1160 1491.9 1162.51 1490.6 Q1165.02 1489.27 1168.04 1489.27 Q1174.39 1489.27 1178.05 1493.14 Q1181.75 1496.97 1181.75 1503.6 Q1181.75 1510.09 1177.91 1514.01 Q1174.08 1517.94 1167.7 1517.94 Q1160.39 1517.94 1156.53 1512.35 Q1152.66 1506.74 1152.66 1496.1 Q1152.66 1486.11 1157.4 1480.19 Q1162.14 1474.24 1170.13 1474.24 Q1172.27 1474.24 1174.44 1474.66 Q1176.64 1475.08 1179.01 1475.93 Z" fill="#000000" fill-rule="nonzero" fill-opacity="1" /><path clip-path="url(#clip580)" d="M1431.2 1487.52 Q1425.78 1487.52 1423.04 1492.87 Q1420.33 1498.18 1420.33 1508.88 Q1420.33 1519.53 1423.04 1524.88 Q1425.78 1530.19 1431.2 1530.19 Q1436.65 1530.19 1439.36 1524.88 Q1442.1 1519.53 1442.1 1508.88 Q1442.1 1498.18 1439.36 1492.87 Q1436.65 1487.52 1431.2 1487.52 M1431.2 1481.97 Q1439.92 1481.97 1444.5 1488.88 Q1449.12 1495.75 1449.12 1508.88 Q1449.12 1521.97 1444.5 1528.88 Q1439.92 1535.75 1431.2 1535.75 Q1422.49 1535.75 1417.87 1528.88 Q1413.28 1521.97 1413.28 1508.88 Q1413.28 1495.75 1417.87 1488.88 Q1422.49 1481.97 1431.2 1481.97 Z" fill="#000000" fill-rule="nonzero" fill-opacity="1" /><path clip-path="url(#clip580)" d="M1711.61 1506.39 L1739.14 1506.39 L1739.14 1512.3 L1718.03 1512.3 L1718.03 1525 Q1719.56 1524.48 1721.09 1524.24 Q1722.61 1523.96 1724.14 1523.96 Q1732.82 1523.96 1737.89 1528.72 Q1742.96 1533.48 1742.96 1541.6 Q1742.96 1549.97 1737.75 1554.62 Q1732.54 1559.24 1723.06 1559.24 Q1719.8 1559.24 1716.4 1558.68 Q1713.03 1558.13 1709.42 1557.02 L1709.42 1549.97 Q1712.54 1551.67 1715.88 1552.5 Q1719.21 1553.34 1722.93 1553.34 Q1728.93 1553.34 1732.44 1550.18 Q1735.95 1547.02 1735.95 1541.6 Q1735.95 1536.18 1732.44 1533.02 Q1728.93 1529.87 1722.93 1529.87 Q1720.11 1529.87 1717.3 1530.49 Q1714.52 1531.12 1711.61 1532.43 L1711.61 1506.39 Z" fill="#000000" fill-rule="nonzero" fill-opacity="1" /><path clip-path="url(#clip580)" d="M1756.78 1549.41 L1764.11 1549.41 L1764.11 1558.23 L1756.78 1558.23 L1756.78 1549.41 Z" fill="#000000" fill-rule="nonzero" fill-opacity="1" /><path clip-path="url(#clip580)" d="M1794.38 1511.01 Q1788.97 1511.01 1786.22 1516.36 Q1783.52 1521.67 1783.52 1532.37 Q1783.52 1543.02 1786.22 1548.37 Q1788.97 1553.68 1794.38 1553.68 Q1799.83 1553.68 1802.54 1548.37 Q1805.29 1543.02 1805.29 1532.37 Q1805.29 1521.67 1802.54 1516.36 Q1799.83 1511.01 1794.38 1511.01 M1794.38 1505.46 Q1803.1 1505.46 1807.68 1512.37 Q1812.3 1519.24 1812.3 1532.37 Q1812.3 1545.46 1807.68 1552.37 Q1803.1 1559.24 1794.38 1559.24 Q1785.67 1559.24 1781.05 1552.37 Q1776.47 1545.46 1776.47 1532.37 Q1776.47 1519.24 1781.05 1512.37 Q1785.67 1505.46 1794.38 1505.46 Z" fill="#000000" fill-rule="nonzero" fill-opacity="1" /><path clip-path="url(#clip580)" d="M1866.88 1520.04 L1851.02 1535.98 L1866.88 1551.84 L1862.75 1556.05 L1846.81 1540.11 L1830.88 1556.05 L1826.78 1551.84 L1842.61 1535.98 L1826.78 1520.04 L1830.88 1515.84 L1846.81 1531.77 L1862.75 1515.84 L1866.88 1520.04 Z" fill="#000000" fill-rule="nonzero" fill-opacity="1" /><path clip-path="url(#clip580)" d="M1885.42 1552.33 L1896.88 1552.33 L1896.88 1512.78 L1884.42 1515.28 L1884.42 1508.89 L1896.81 1506.39 L1903.83 1506.39 L1903.83 1552.33 L1915.29 1552.33 L1915.29 1558.23 L1885.42 1558.23 L1885.42 1552.33 Z" fill="#000000" fill-rule="nonzero" fill-opacity="1" /><path clip-path="url(#clip580)" d="M1944.45 1511.01 Q1939.04 1511.01 1936.29 1516.36 Q1933.58 1521.67 1933.58 1532.37 Q1933.58 1543.02 1936.29 1548.37 Q1939.04 1553.68 1944.45 1553.68 Q1949.9 1553.68 1952.61 1548.37 Q1955.35 1543.02 1955.35 1532.37 Q1955.35 1521.67 1952.61 1516.36 Q1949.9 1511.01 1944.45 1511.01 M1944.45 1505.46 Q1953.17 1505.46 1957.75 1512.37 Q1962.37 1519.24 1962.37 1532.37 Q1962.37 1545.46 1957.75 1552.37 Q1953.17 1559.24 1944.45 1559.24 Q1935.74 1559.24 1931.12 1552.37 Q1926.54 1545.46 1926.54 1532.37 Q1926.54 1519.24 1931.12 1512.37 Q1935.74 1505.46 1944.45 1505.46 Z" fill="#000000" fill-rule="nonzero" fill-opacity="1" /><path clip-path="url(#clip580)" d="M1962.37 1496.61 L1998.54 1496.61 L1998.54 1501.4 L1962.37 1501.4 L1962.37 1496.61 Z" fill="#000000" fill-rule="nonzero" fill-opacity="1" /><path clip-path="url(#clip580)" d="M2011.82 1512.32 L2021.13 1512.32 L2021.13 1480.19 L2011.01 1482.22 L2011.01 1477.03 L2021.08 1475 L2026.78 1475 L2026.78 1512.32 L2036.09 1512.32 L2036.09 1517.12 L2011.82 1517.12 L2011.82 1512.32 Z" fill="#000000" fill-rule="nonzero" fill-opacity="1" /><path clip-path="url(#clip580)" d="M2060.49 1493.79 Q2056.65 1493.79 2054.4 1496.41 Q2052.17 1499.03 2052.17 1503.6 Q2052.17 1508.15 2054.4 1510.8 Q2056.65 1513.42 2060.49 1513.42 Q2064.33 1513.42 2066.55 1510.8 Q2068.81 1508.15 2068.81 1503.6 Q2068.81 1499.03 2066.55 1496.41 Q2064.33 1493.79 2060.49 1493.79 M2071.8 1475.93 L2071.8 1481.12 Q2069.66 1480.1 2067.46 1479.57 Q2065.28 1479.03 2063.14 1479.03 Q2057.5 1479.03 2054.51 1482.84 Q2051.55 1486.65 2051.12 1494.35 Q2052.79 1491.9 2055.3 1490.6 Q2057.81 1489.27 2060.83 1489.27 Q2067.18 1489.27 2070.84 1493.14 Q2074.54 1496.97 2074.54 1503.6 Q2074.54 1510.09 2070.7 1514.01 Q2066.86 1517.94 2060.49 1517.94 Q2053.18 1517.94 2049.32 1512.35 Q2045.45 1506.74 2045.45 1496.1 Q2045.45 1486.11 2050.19 1480.19 Q2054.93 1474.24 2062.92 1474.24 Q2065.06 1474.24 2067.23 1474.66 Q2069.43 1475.08 2071.8 1475.93 Z" fill="#000000" fill-rule="nonzero" fill-opacity="1" /><path clip-path="url(#clip580)" d="M2173.07 1552.33 L2184.53 1552.33 L2184.53 1512.78 L2172.06 1515.28 L2172.06 1508.89 L2184.46 1506.39 L2191.47 1506.39 L2191.47 1552.33 L2202.93 1552.33 L2202.93 1558.23 L2173.07 1558.23 L2173.07 1552.33 Z" fill="#000000" fill-rule="nonzero" fill-opacity="1" /><path clip-path="url(#clip580)" d="M2217.1 1549.41 L2224.43 1549.41 L2224.43 1558.23 L2217.1 1558.23 L2217.1 1549.41 Z" fill="#000000" fill-rule="nonzero" fill-opacity="1" /><path clip-path="url(#clip580)" d="M2254.7 1511.01 Q2249.29 1511.01 2246.54 1516.36 Q2243.84 1521.67 2243.84 1532.37 Q2243.84 1543.02 2246.54 1548.37 Q2249.29 1553.68 2254.7 1553.68 Q2260.15 1553.68 2262.86 1548.37 Q2265.61 1543.02 2265.61 1532.37 Q2265.61 1521.67 2262.86 1516.36 Q2260.15 1511.01 2254.7 1511.01 M2254.7 1505.46 Q2263.42 1505.46 2268 1512.37 Q2272.62 1519.24 2272.62 1532.37 Q2272.62 1545.46 2268 1552.37 Q2263.42 1559.24 2254.7 1559.24 Q2245.99 1559.24 2241.37 1552.37 Q2236.79 1545.46 2236.79 1532.37 Q2236.79 1519.24 2241.37 1512.37 Q2245.99 1505.46 2254.7 1505.46 Z" fill="#000000" fill-rule="nonzero" fill-opacity="1" /><path clip-path="url(#clip580)" d="M2327.2 1520.04 L2311.33 1535.98 L2327.2 1551.84 L2323.07 1556.05 L2307.13 1540.11 L2291.2 1556.05 L2287.1 1551.84 L2302.93 1535.98 L2287.1 1520.04 L2291.2 1515.84 L2307.13 1531.77 L2323.07 1515.84 L2327.2 1520.04 Z" fill="#000000" fill-rule="nonzero" fill-opacity="1" /><path clip-path="url(#clip580)" d="M2345.74 1552.33 L2357.2 1552.33 L2357.2 1512.78 L2344.74 1515.28 L2344.74 1508.89 L2357.13 1506.39 L2364.15 1506.39 L2364.15 1552.33 L2375.61 1552.33 L2375.61 1558.23 L2345.74 1558.23 L2345.74 1552.33 Z" fill="#000000" fill-rule="nonzero" fill-opacity="1" /><path clip-path="url(#clip580)" d="M2404.77 1511.01 Q2399.36 1511.01 2396.61 1516.36 Q2393.9 1521.67 2393.9 1532.37 Q2393.9 1543.02 2396.61 1548.37 Q2399.36 1553.68 2404.77 1553.68 Q2410.22 1553.68 2412.93 1548.37 Q2415.67 1543.02 2415.67 1532.37 Q2415.67 1521.67 2412.93 1516.36 Q2410.22 1511.01 2404.77 1511.01 M2404.77 1505.46 Q2413.49 1505.46 2418.07 1512.37 Q2422.69 1519.24 2422.69 1532.37 Q2422.69 1545.46 2418.07 1552.37 Q2413.49 1559.24 2404.77 1559.24 Q2396.06 1559.24 2391.44 1552.37 Q2386.86 1545.46 2386.86 1532.37 Q2386.86 1519.24 2391.44 1512.37 Q2396.06 1505.46 2404.77 1505.46 Z" fill="#000000" fill-rule="nonzero" fill-opacity="1" /><path clip-path="url(#clip580)" d="M2422.69 1496.61 L2458.86 1496.61 L2458.86 1501.4 L2422.69 1501.4 L2422.69 1496.61 Z" fill="#000000" fill-rule="nonzero" fill-opacity="1" /><path clip-path="url(#clip580)" d="M2472.14 1512.32 L2481.45 1512.32 L2481.45 1480.19 L2471.33 1482.22 L2471.33 1477.03 L2481.4 1475 L2487.1 1475 L2487.1 1512.32 L2496.41 1512.32 L2496.41 1517.12 L2472.14 1517.12 L2472.14 1512.32 Z" fill="#000000" fill-rule="nonzero" fill-opacity="1" /><path clip-path="url(#clip580)" d="M2507.97 1475 L2530.34 1475 L2530.34 1479.79 L2513.19 1479.79 L2513.19 1490.12 Q2514.43 1489.7 2515.67 1489.5 Q2516.92 1489.27 2518.16 1489.27 Q2525.21 1489.27 2529.33 1493.14 Q2533.45 1497 2533.45 1503.6 Q2533.45 1510.4 2529.22 1514.18 Q2524.98 1517.94 2517.28 1517.94 Q2514.63 1517.94 2511.87 1517.48 Q2509.13 1517.03 2506.19 1516.13 L2506.19 1510.4 Q2508.73 1511.79 2511.44 1512.46 Q2514.15 1513.14 2517.17 1513.14 Q2522.05 1513.14 2524.9 1510.57 Q2527.75 1508.01 2527.75 1503.6 Q2527.75 1499.2 2524.9 1496.64 Q2522.05 1494.07 2517.17 1494.07 Q2514.88 1494.07 2512.6 1494.58 Q2510.34 1495.08 2507.97 1496.16 L2507.97 1475 Z" fill="#000000" fill-rule="nonzero" fill-opacity="1" /><polyline clip-path="url(#clip580)" style="stroke:#000000; stroke-linecap:round; stroke-linejoin:round; stroke-width:4; stroke-opacity:1; fill:none" points="509.646,1450.74 509.646,47.2441 "/>
<polyline clip-path="url(#clip580)" style="stroke:#000000; stroke-linecap:round; stroke-linejoin:round; stroke-width:4; stroke-opacity:1; fill:none" points="509.646,1411.02 528.544,1411.02 "/>
<polyline clip-path="url(#clip580)" style="stroke:#000000; stroke-linecap:round; stroke-linejoin:round; stroke-width:4; stroke-opacity:1; fill:none" points="509.646,1097.3 528.544,1097.3 "/>
<polyline clip-path="url(#clip580)" style="stroke:#000000; stroke-linecap:round; stroke-linejoin:round; stroke-width:4; stroke-opacity:1; fill:none" points="509.646,783.573 528.544,783.573 "/>
<polyline clip-path="url(#clip580)" style="stroke:#000000; stroke-linecap:round; stroke-linejoin:round; stroke-width:4; stroke-opacity:1; fill:none" points="509.646,469.849 528.544,469.849 "/>
<polyline clip-path="url(#clip580)" style="stroke:#000000; stroke-linecap:round; stroke-linejoin:round; stroke-width:4; stroke-opacity:1; fill:none" points="509.646,156.125 528.544,156.125 "/>
<path clip-path="url(#clip580)" d="M52.4027 1421.37 L96.9164 1421.37 L96.9164 1427.27 L52.4027 1427.27 L52.4027 1421.37 Z" fill="#000000" fill-rule="nonzero" fill-opacity="1" /><path clip-path="url(#clip580)" d="M113.27 1440.71 L124.729 1440.71 L124.729 1401.16 L112.263 1403.66 L112.263 1397.27 L124.659 1394.77 L131.673 1394.77 L131.673 1440.71 L143.131 1440.71 L143.131 1446.61 L113.27 1446.61 L113.27 1440.71 Z" fill="#000000" fill-rule="nonzero" fill-opacity="1" /><path clip-path="url(#clip580)" d="M157.298 1437.79 L164.624 1437.79 L164.624 1446.61 L157.298 1446.61 L157.298 1437.79 Z" fill="#000000" fill-rule="nonzero" fill-opacity="1" /><path clip-path="url(#clip580)" d="M194.902 1399.39 Q189.485 1399.39 186.742 1404.74 Q184.034 1410.05 184.034 1420.74 Q184.034 1431.4 186.742 1436.75 Q189.485 1442.06 194.902 1442.06 Q200.353 1442.06 203.062 1436.75 Q205.805 1431.4 205.805 1420.74 Q205.805 1410.05 203.062 1404.74 Q200.353 1399.39 194.902 1399.39 M194.902 1393.84 Q203.617 1393.84 208.2 1400.74 Q212.819 1407.62 212.819 1420.74 Q212.819 1433.84 208.2 1440.74 Q203.617 1447.62 194.902 1447.62 Q186.187 1447.62 181.569 1440.74 Q176.985 1433.84 176.985 1420.74 Q176.985 1407.62 181.569 1400.74 Q186.187 1393.84 194.902 1393.84 Z" fill="#000000" fill-rule="nonzero" fill-opacity="1" /><path clip-path="url(#clip580)" d="M267.402 1408.42 L251.534 1424.36 L267.402 1440.22 L263.27 1444.43 L247.332 1428.49 L231.395 1444.43 L227.298 1440.22 L243.131 1424.36 L227.298 1408.42 L231.395 1404.22 L247.332 1420.15 L263.27 1404.22 L267.402 1408.42 Z" fill="#000000" fill-rule="nonzero" fill-opacity="1" /><path clip-path="url(#clip580)" d="M285.943 1440.71 L297.401 1440.71 L297.401 1401.16 L284.936 1403.66 L284.936 1397.27 L297.332 1394.77 L304.346 1394.77 L304.346 1440.71 L315.804 1440.71 L315.804 1446.61 L285.943 1446.61 L285.943 1440.71 Z" fill="#000000" fill-rule="nonzero" fill-opacity="1" /><path clip-path="url(#clip580)" d="M344.971 1399.39 Q339.554 1399.39 336.811 1404.74 Q334.103 1410.05 334.103 1420.74 Q334.103 1431.4 336.811 1436.75 Q339.554 1442.06 344.971 1442.06 Q350.422 1442.06 353.13 1436.75 Q355.873 1431.4 355.873 1420.74 Q355.873 1410.05 353.13 1404.74 Q350.422 1399.39 344.971 1399.39 M344.971 1393.84 Q353.686 1393.84 358.269 1400.74 Q362.887 1407.62 362.887 1420.74 Q362.887 1433.84 358.269 1440.74 Q353.686 1447.62 344.971 1447.62 Q336.255 1447.62 331.637 1440.74 Q327.054 1433.84 327.054 1420.74 Q327.054 1407.62 331.637 1400.74 Q336.255 1393.84 344.971 1393.84 Z" fill="#000000" fill-rule="nonzero" fill-opacity="1" /><path clip-path="url(#clip580)" d="M362.887 1384.99 L399.054 1384.99 L399.054 1389.78 L362.887 1389.78 L362.887 1384.99 Z" fill="#000000" fill-rule="nonzero" fill-opacity="1" /><path clip-path="url(#clip580)" d="M412.342 1400.7 L421.652 1400.7 L421.652 1368.57 L411.524 1370.6 L411.524 1365.41 L421.596 1363.38 L427.294 1363.38 L427.294 1400.7 L436.604 1400.7 L436.604 1405.5 L412.342 1405.5 L412.342 1400.7 Z" fill="#000000" fill-rule="nonzero" fill-opacity="1" /><path clip-path="url(#clip580)" d="M448.171 1363.38 L470.543 1363.38 L470.543 1368.17 L453.39 1368.17 L453.39 1378.5 Q454.631 1378.08 455.873 1377.88 Q457.114 1377.65 458.355 1377.65 Q465.408 1377.65 469.527 1381.52 Q473.646 1385.38 473.646 1391.98 Q473.646 1398.78 469.414 1402.56 Q465.183 1406.32 457.481 1406.32 Q454.829 1406.32 452.064 1405.86 Q449.328 1405.41 446.394 1404.51 L446.394 1398.78 Q448.933 1400.17 451.641 1400.84 Q454.349 1401.52 457.368 1401.52 Q462.249 1401.52 465.098 1398.95 Q467.947 1396.38 467.947 1391.98 Q467.947 1387.58 465.098 1385.02 Q462.249 1382.45 457.368 1382.45 Q455.083 1382.45 452.798 1382.96 Q450.541 1383.46 448.171 1384.54 L448.171 1363.38 Z" fill="#000000" fill-rule="nonzero" fill-opacity="1" /><path clip-path="url(#clip580)" d="M50.9921 1107.65 L95.5058 1107.65 L95.5058 1113.55 L50.9921 1113.55 L50.9921 1107.65 Z" fill="#000000" fill-rule="nonzero" fill-opacity="1" /><path clip-path="url(#clip580)" d="M110.714 1081.05 L138.249 1081.05 L138.249 1086.95 L117.138 1086.95 L117.138 1099.66 Q118.665 1099.14 120.193 1098.9 Q121.721 1098.62 123.249 1098.62 Q131.929 1098.62 136.999 1103.37 Q142.068 1108.13 142.068 1116.26 Q142.068 1124.62 136.86 1129.28 Q131.651 1133.9 122.172 1133.9 Q118.908 1133.9 115.506 1133.34 Q112.138 1132.78 108.527 1131.67 L108.527 1124.62 Q111.652 1126.33 114.985 1127.16 Q118.318 1127.99 122.033 1127.99 Q128.04 1127.99 131.547 1124.83 Q135.054 1121.67 135.054 1116.26 Q135.054 1110.84 131.547 1107.68 Q128.04 1104.52 122.033 1104.52 Q119.221 1104.52 116.408 1105.15 Q113.631 1105.77 110.714 1107.09 L110.714 1081.05 Z" fill="#000000" fill-rule="nonzero" fill-opacity="1" /><path clip-path="url(#clip580)" d="M155.887 1124.07 L163.214 1124.07 L163.214 1132.89 L155.887 1132.89 L155.887 1124.07 Z" fill="#000000" fill-rule="nonzero" fill-opacity="1" /><path clip-path="url(#clip580)" d="M193.491 1085.67 Q188.075 1085.67 185.332 1091.01 Q182.623 1096.33 182.623 1107.02 Q182.623 1117.68 185.332 1123.03 Q188.075 1128.34 193.491 1128.34 Q198.943 1128.34 201.651 1123.03 Q204.394 1117.68 204.394 1107.02 Q204.394 1096.33 201.651 1091.01 Q198.943 1085.67 193.491 1085.67 M193.491 1080.11 Q202.207 1080.11 206.79 1087.02 Q211.408 1093.9 211.408 1107.02 Q211.408 1120.11 206.79 1127.02 Q202.207 1133.9 193.491 1133.9 Q184.776 1133.9 180.158 1127.02 Q175.575 1120.11 175.575 1107.02 Q175.575 1093.9 180.158 1087.02 Q184.776 1080.11 193.491 1080.11 Z" fill="#000000" fill-rule="nonzero" fill-opacity="1" /><path clip-path="url(#clip580)" d="M265.991 1094.69 L250.123 1110.63 L265.991 1126.5 L261.859 1130.7 L245.922 1114.76 L229.984 1130.7 L225.887 1126.5 L241.72 1110.63 L225.887 1094.69 L229.984 1090.49 L245.922 1106.43 L261.859 1090.49 L265.991 1094.69 Z" fill="#000000" fill-rule="nonzero" fill-opacity="1" /><path clip-path="url(#clip580)" d="M284.533 1126.99 L295.991 1126.99 L295.991 1087.44 L283.526 1089.94 L283.526 1083.55 L295.921 1081.05 L302.935 1081.05 L302.935 1126.99 L314.393 1126.99 L314.393 1132.89 L284.533 1132.89 L284.533 1126.99 Z" fill="#000000" fill-rule="nonzero" fill-opacity="1" /><path clip-path="url(#clip580)" d="M343.56 1085.67 Q338.143 1085.67 335.4 1091.01 Q332.692 1096.33 332.692 1107.02 Q332.692 1117.68 335.4 1123.03 Q338.143 1128.34 343.56 1128.34 Q349.011 1128.34 351.72 1123.03 Q354.463 1117.68 354.463 1107.02 Q354.463 1096.33 351.72 1091.01 Q349.011 1085.67 343.56 1085.67 M343.56 1080.11 Q352.275 1080.11 356.859 1087.02 Q361.477 1093.9 361.477 1107.02 Q361.477 1120.11 356.859 1127.02 Q352.275 1133.9 343.56 1133.9 Q334.845 1133.9 330.227 1127.02 Q325.643 1120.11 325.643 1107.02 Q325.643 1093.9 330.227 1087.02 Q334.845 1080.11 343.56 1080.11 Z" fill="#000000" fill-rule="nonzero" fill-opacity="1" /><path clip-path="url(#clip580)" d="M361.477 1071.26 L397.644 1071.26 L397.644 1076.06 L361.477 1076.06 L361.477 1071.26 Z" fill="#000000" fill-rule="nonzero" fill-opacity="1" /><path clip-path="url(#clip580)" d="M410.932 1086.98 L420.241 1086.98 L420.241 1054.84 L410.113 1056.88 L410.113 1051.68 L420.185 1049.65 L425.884 1049.65 L425.884 1086.98 L435.194 1086.98 L435.194 1091.77 L410.932 1091.77 L410.932 1086.98 Z" fill="#000000" fill-rule="nonzero" fill-opacity="1" /><path clip-path="url(#clip580)" d="M459.597 1068.44 Q455.76 1068.44 453.503 1071.07 Q451.274 1073.69 451.274 1078.26 Q451.274 1082.8 453.503 1085.45 Q455.76 1088.08 459.597 1088.08 Q463.433 1088.08 465.662 1085.45 Q467.919 1082.8 467.919 1078.26 Q467.919 1073.69 465.662 1071.07 Q463.433 1068.44 459.597 1068.44 M470.91 1050.58 L470.91 1055.78 Q468.765 1054.76 466.565 1054.22 Q464.393 1053.69 462.249 1053.69 Q456.606 1053.69 453.616 1057.5 Q450.654 1061.3 450.23 1069.01 Q451.895 1066.55 454.406 1065.25 Q456.917 1063.93 459.935 1063.93 Q466.283 1063.93 469.95 1067.79 Q473.646 1071.63 473.646 1078.26 Q473.646 1084.75 469.809 1088.67 Q465.973 1092.59 459.597 1092.59 Q452.29 1092.59 448.425 1087.01 Q444.56 1081.39 444.56 1070.76 Q444.56 1060.77 449.299 1054.84 Q454.039 1048.89 462.023 1048.89 Q464.167 1048.89 466.339 1049.31 Q468.54 1049.74 470.91 1050.58 Z" fill="#000000" fill-rule="nonzero" fill-opacity="1" /><path clip-path="url(#clip580)" d="M455.73 762.271 Q450.313 762.271 447.57 767.618 Q444.862 772.931 444.862 783.625 Q444.862 794.285 447.57 799.632 Q450.313 804.945 455.73 804.945 Q461.181 804.945 463.889 799.632 Q466.632 794.285 466.632 783.625 Q466.632 772.931 463.889 767.618 Q461.181 762.271 455.73 762.271 M455.73 756.716 Q464.445 756.716 469.028 763.625 Q473.646 770.5 473.646 783.625 Q473.646 796.715 469.028 803.625 Q464.445 810.5 455.73 810.5 Q447.014 810.5 442.396 803.625 Q437.813 796.715 437.813 783.625 Q437.813 770.5 442.396 763.625 Q447.014 756.716 455.73 756.716 Z" fill="#000000" fill-rule="nonzero" fill-opacity="1" /><path clip-path="url(#clip580)" d="M110.714 453.601 L138.249 453.601 L138.249 459.503 L117.138 459.503 L117.138 472.212 Q118.665 471.691 120.193 471.448 Q121.721 471.17 123.249 471.17 Q131.929 471.17 136.999 475.927 Q142.068 480.684 142.068 488.809 Q142.068 497.177 136.86 501.829 Q131.651 506.447 122.172 506.447 Q118.908 506.447 115.506 505.892 Q112.138 505.336 108.527 504.225 L108.527 497.177 Q111.652 498.878 114.985 499.711 Q118.318 500.545 122.033 500.545 Q128.04 500.545 131.547 497.385 Q135.054 494.225 135.054 488.809 Q135.054 483.392 131.547 480.232 Q128.04 477.073 122.033 477.073 Q119.221 477.073 116.408 477.698 Q113.631 478.323 110.714 479.642 L110.714 453.601 Z" fill="#000000" fill-rule="nonzero" fill-opacity="1" /><path clip-path="url(#clip580)" d="M155.887 496.621 L163.214 496.621 L163.214 505.441 L155.887 505.441 L155.887 496.621 Z" fill="#000000" fill-rule="nonzero" fill-opacity="1" /><path clip-path="url(#clip580)" d="M193.491 458.219 Q188.075 458.219 185.332 463.566 Q182.623 468.878 182.623 479.573 Q182.623 490.232 185.332 495.579 Q188.075 500.892 193.491 500.892 Q198.943 500.892 201.651 495.579 Q204.394 490.232 204.394 479.573 Q204.394 468.878 201.651 463.566 Q198.943 458.219 193.491 458.219 M193.491 452.663 Q202.207 452.663 206.79 459.573 Q211.408 466.448 211.408 479.573 Q211.408 492.663 206.79 499.572 Q202.207 506.447 193.491 506.447 Q184.776 506.447 180.158 499.572 Q175.575 492.663 175.575 479.573 Q175.575 466.448 180.158 459.573 Q184.776 452.663 193.491 452.663 Z" fill="#000000" fill-rule="nonzero" fill-opacity="1" /><path clip-path="url(#clip580)" d="M265.991 467.246 L250.123 483.184 L265.991 499.052 L261.859 503.253 L245.922 487.316 L229.984 503.253 L225.887 499.052 L241.72 483.184 L225.887 467.246 L229.984 463.045 L245.922 478.982 L261.859 463.045 L265.991 467.246 Z" fill="#000000" fill-rule="nonzero" fill-opacity="1" /><path clip-path="url(#clip580)" d="M284.533 499.538 L295.991 499.538 L295.991 459.989 L283.526 462.489 L283.526 456.1 L295.921 453.601 L302.935 453.601 L302.935 499.538 L314.393 499.538 L314.393 505.441 L284.533 505.441 L284.533 499.538 Z" fill="#000000" fill-rule="nonzero" fill-opacity="1" /><path clip-path="url(#clip580)" d="M343.56 458.219 Q338.143 458.219 335.4 463.566 Q332.692 468.878 332.692 479.573 Q332.692 490.232 335.4 495.579 Q338.143 500.892 343.56 500.892 Q349.011 500.892 351.72 495.579 Q354.463 490.232 354.463 479.573 Q354.463 468.878 351.72 463.566 Q349.011 458.219 343.56 458.219 M343.56 452.663 Q352.275 452.663 356.859 459.573 Q361.477 466.448 361.477 479.573 Q361.477 492.663 356.859 499.572 Q352.275 506.447 343.56 506.447 Q334.845 506.447 330.227 499.572 Q325.643 492.663 325.643 479.573 Q325.643 466.448 330.227 459.573 Q334.845 452.663 343.56 452.663 Z" fill="#000000" fill-rule="nonzero" fill-opacity="1" /><path clip-path="url(#clip580)" d="M361.477 443.815 L397.644 443.815 L397.644 448.611 L361.477 448.611 L361.477 443.815 Z" fill="#000000" fill-rule="nonzero" fill-opacity="1" /><path clip-path="url(#clip580)" d="M410.932 459.529 L420.241 459.529 L420.241 427.396 L410.113 429.427 L410.113 424.236 L420.185 422.205 L425.884 422.205 L425.884 459.529 L435.194 459.529 L435.194 464.325 L410.932 464.325 L410.932 459.529 Z" fill="#000000" fill-rule="nonzero" fill-opacity="1" /><path clip-path="url(#clip580)" d="M459.597 440.994 Q455.76 440.994 453.503 443.618 Q451.274 446.241 451.274 450.812 Q451.274 455.354 453.503 458.005 Q455.76 460.629 459.597 460.629 Q463.433 460.629 465.662 458.005 Q467.919 455.354 467.919 450.812 Q467.919 446.241 465.662 443.618 Q463.433 440.994 459.597 440.994 M470.91 423.136 L470.91 428.327 Q468.765 427.311 466.565 426.775 Q464.393 426.239 462.249 426.239 Q456.606 426.239 453.616 430.048 Q450.654 433.856 450.23 441.558 Q451.895 439.104 454.406 437.806 Q456.917 436.48 459.935 436.48 Q466.283 436.48 469.95 440.345 Q473.646 444.182 473.646 450.812 Q473.646 457.3 469.809 461.222 Q465.973 465.143 459.597 465.143 Q452.29 465.143 448.425 459.557 Q444.56 453.943 444.56 443.307 Q444.56 433.32 449.299 427.396 Q454.039 421.443 462.023 421.443 Q464.167 421.443 466.339 421.866 Q468.54 422.29 470.91 423.136 Z" fill="#000000" fill-rule="nonzero" fill-opacity="1" /><path clip-path="url(#clip580)" d="M113.27 185.814 L124.729 185.814 L124.729 146.265 L112.263 148.765 L112.263 142.376 L124.659 139.876 L131.673 139.876 L131.673 185.814 L143.131 185.814 L143.131 191.716 L113.27 191.716 L113.27 185.814 Z" fill="#000000" fill-rule="nonzero" fill-opacity="1" /><path clip-path="url(#clip580)" d="M157.298 182.897 L164.624 182.897 L164.624 191.716 L157.298 191.716 L157.298 182.897 Z" fill="#000000" fill-rule="nonzero" fill-opacity="1" /><path clip-path="url(#clip580)" d="M194.902 144.494 Q189.485 144.494 186.742 149.842 Q184.034 155.154 184.034 165.848 Q184.034 176.508 186.742 181.855 Q189.485 187.168 194.902 187.168 Q200.353 187.168 203.062 181.855 Q205.805 176.508 205.805 165.848 Q205.805 155.154 203.062 149.842 Q200.353 144.494 194.902 144.494 M194.902 138.939 Q203.617 138.939 208.2 145.849 Q212.819 152.724 212.819 165.848 Q212.819 178.939 208.2 185.848 Q203.617 192.723 194.902 192.723 Q186.187 192.723 181.569 185.848 Q176.985 178.939 176.985 165.848 Q176.985 152.724 181.569 145.849 Q186.187 138.939 194.902 138.939 Z" fill="#000000" fill-rule="nonzero" fill-opacity="1" /><path clip-path="url(#clip580)" d="M267.402 153.522 L251.534 169.46 L267.402 185.328 L263.27 189.529 L247.332 173.591 L231.395 189.529 L227.298 185.328 L243.131 169.46 L227.298 153.522 L231.395 149.321 L247.332 165.258 L263.27 149.321 L267.402 153.522 Z" fill="#000000" fill-rule="nonzero" fill-opacity="1" /><path clip-path="url(#clip580)" d="M285.943 185.814 L297.401 185.814 L297.401 146.265 L284.936 148.765 L284.936 142.376 L297.332 139.876 L304.346 139.876 L304.346 185.814 L315.804 185.814 L315.804 191.716 L285.943 191.716 L285.943 185.814 Z" fill="#000000" fill-rule="nonzero" fill-opacity="1" /><path clip-path="url(#clip580)" d="M344.971 144.494 Q339.554 144.494 336.811 149.842 Q334.103 155.154 334.103 165.848 Q334.103 176.508 336.811 181.855 Q339.554 187.168 344.971 187.168 Q350.422 187.168 353.13 181.855 Q355.873 176.508 355.873 165.848 Q355.873 155.154 353.13 149.842 Q350.422 144.494 344.971 144.494 M344.971 138.939 Q353.686 138.939 358.269 145.849 Q362.887 152.724 362.887 165.848 Q362.887 178.939 358.269 185.848 Q353.686 192.723 344.971 192.723 Q336.255 192.723 331.637 185.848 Q327.054 178.939 327.054 165.848 Q327.054 152.724 331.637 145.849 Q336.255 138.939 344.971 138.939 Z" fill="#000000" fill-rule="nonzero" fill-opacity="1" /><path clip-path="url(#clip580)" d="M362.887 130.091 L399.054 130.091 L399.054 134.887 L362.887 134.887 L362.887 130.091 Z" fill="#000000" fill-rule="nonzero" fill-opacity="1" /><path clip-path="url(#clip580)" d="M412.342 145.805 L421.652 145.805 L421.652 113.672 L411.524 115.703 L411.524 110.512 L421.596 108.481 L427.294 108.481 L427.294 145.805 L436.604 145.805 L436.604 150.601 L412.342 150.601 L412.342 145.805 Z" fill="#000000" fill-rule="nonzero" fill-opacity="1" /><path clip-path="url(#clip580)" d="M448.171 108.481 L470.543 108.481 L470.543 113.277 L453.39 113.277 L453.39 123.602 Q454.631 123.179 455.873 122.982 Q457.114 122.756 458.355 122.756 Q465.408 122.756 469.527 126.621 Q473.646 130.486 473.646 137.087 Q473.646 143.886 469.414 147.667 Q465.183 151.419 457.481 151.419 Q454.829 151.419 452.064 150.968 Q449.328 150.516 446.394 149.613 L446.394 143.886 Q448.933 145.269 451.641 145.946 Q454.349 146.623 457.368 146.623 Q462.249 146.623 465.098 144.056 Q467.947 141.488 467.947 137.087 Q467.947 132.686 465.098 130.119 Q462.249 127.552 457.368 127.552 Q455.083 127.552 452.798 128.06 Q450.541 128.568 448.171 129.64 L448.171 108.481 Z" fill="#000000" fill-rule="nonzero" fill-opacity="1" /><polyline clip-path="url(#clip582)" style="stroke:#009af9; stroke-linecap:round; stroke-linejoin:round; stroke-width:12; stroke-opacity:1; fill:none" points="509.646,1410.52 514.211,1410.52 518.776,1410.52 523.341,1410.52 527.906,1410.52 534.293,1410.52 540.68,1410.52 547.067,1410.52 553.454,1410.52 555.051,1410.52 556.647,1410.52 558.244,1410.52 559.841,1410.52 560.639,1410.52 561.438,1410.52 562.236,1340.86 563.034,1340.86 563.833,1340.86 564.631,1340.86 565.429,1340.86 566.228,1340.86 569.421,1340.86 572.615,1340.86 575.808,1340.86 579.002,1340.86 591.776,1340.86 604.55,1340.86 617.324,1340.86 630.097,1340.86 638.819,1340.86 647.541,1340.86 651.902,1340.86 656.263,1340.86 658.444,1340.86 660.624,1340.86 661.169,1340.86 661.714,1340.86 662.26,1340.86 662.805,1340.86 663.35,1340.86 663.895,1271.2 664.44,1271.2 664.985,1271.2 666.075,1271.2 667.166,1271.2 668.256,1271.2 669.346,1271.2 671.527,1271.2 673.707,1271.2 678.068,1271.2 682.429,1271.2 691.151,1271.2 699.873,1271.2 714.017,1271.2 728.161,1271.2 735.233,1271.2 742.305,1271.2 745.841,1271.2 749.377,1271.2 752.913,1271.2 756.449,1271.2 758.225,1271.2 760,1271.2 761.776,1271.2 763.552,1271.2 763.996,1271.2 764.44,1271.2 764.884,1271.2 765.328,1271.2 765.772,1271.2 766.216,1201.54 766.66,1201.54 767.104,1201.54 767.992,1201.54 768.88,1201.54 769.768,1201.54 770.656,1201.54 774.207,1201.54 777.759,1201.54 781.311,1201.54 784.863,1201.54 799.07,1201.54 813.276,1201.54 830.555,1201.54 847.835,1201.54 852.154,1201.54 856.474,1201.54 858.634,1201.54 860.794,1201.54 862.954,1201.54 865.114,1201.54 866.194,1201.54 867.273,1201.54 867.813,1201.54 868.353,1201.54 868.893,1131.88 869.433,1131.88 869.973,1131.88 870.513,1131.88 871.053,1131.88 871.593,1131.88 872.673,1131.88 873.753,1131.88 878.073,1131.88 882.393,1131.88 889.474,1131.88 896.555,1131.88 903.637,1131.88 910.718,1131.88 924.881,1131.88 939.043,1131.88 946.13,1131.88 953.216,1131.88 956.759,1131.88 960.303,1131.88 962.074,1131.88 963.846,1131.88 965.618,1131.88 967.389,1131.88 968.275,1131.88 969.161,1131.88 969.604,1131.88 970.047,1131.88 970.489,1131.88 970.932,1062.22 971.375,1062.22 971.818,1062.22 972.261,1062.22 972.704,1062.22 973.59,1062.22 974.476,1062.22 978.019,1062.22 981.562,1062.22 988.649,1062.22 995.735,1062.22 1013.02,1062.22 1030.31,1062.22 1038.96,1062.22 1047.6,1062.22 1056.25,1062.22 1064.89,1062.22 1066.66,1062.22 1068.44,1062.22 1069.32,1062.22 1070.21,1062.22 1071.09,1062.22 1071.98,1062.22 1072.42,1062.22 1072.86,1062.22 1073.31,992.555 1073.75,992.555 1074.19,992.555 1074.64,992.555 1075.08,992.555 1075.52,992.555 1077.29,992.555 1079.07,992.555 1082.61,992.555 1086.15,992.555 1089.7,992.555 1093.24,992.555 1107.41,992.555 1121.59,992.555 1138.86,992.555 1156.13,992.555 1160.45,992.555 1164.76,992.555 1166.92,992.555 1169.08,992.555 1170.16,992.555 1171.24,992.555 1172.32,992.555 1173.4,992.555 1173.94,992.555 1174.48,992.555 1175.02,992.555 1175.56,922.895 1176.1,922.895 1176.64,922.895 1177.18,922.895 1177.72,922.895 1179.88,922.895 1182.04,922.895 1186.35,922.895 1190.67,922.895 1197.75,922.895 1204.83,922.895 1211.9,922.895 1218.98,922.895 1233.14,922.895 1247.3,922.895 1254.39,922.895 1261.49,922.895 1265.04,922.895 1268.59,922.895 1272.13,922.895 1275.68,922.895 1276.13,922.895 1276.57,922.895 1277.01,922.895 1277.46,922.895 1277.9,853.234 1278.34,853.234 1278.79,853.234 1279.23,853.234 1280.12,853.234 1281.01,853.234 1281.89,853.234 1282.78,853.234 1286.33,853.234 1289.88,853.234 1296.97,853.234 1304.07,853.234 1321.35,853.234 1338.64,853.234 1355.92,853.234 1373.2,853.234 1374.97,853.234 1376.74,853.234 1377.63,853.234 1378.52,853.234 1378.96,853.234 1379.4,853.234 1379.84,853.234 1380.29,783.573 1380.73,783.573 1381.17,783.573 1381.61,783.573 1382.06,783.573 1382.94,783.573 1383.83,783.573 1385.6,783.573 1387.37,783.573 1394.45,783.573 1401.54,783.573 1415.7,783.573 1429.87,783.573 1458.19,783.573 1486.51,783.573 1503.8,783.573 1521.1,783.573 1523.26,783.573 1525.42,783.573 1527.58,783.573 1529.74,783.573 1530.82,783.573 1531.9,783.573 1532.44,783.573 1532.99,783.573 1533.53,644.252 1534.07,644.252 1534.61,644.252 1535.15,644.252 1535.69,644.252 1536.23,644.252 1537.31,644.252 1538.39,644.252 1542.71,644.252 1547.04,644.252 1551.36,644.252 1555.68,644.252 1584.04,644.252 1612.39,644.252 1646.94,644.252 1681.49,644.252 1695.65,644.252 1709.81,644.252 1716.89,644.252 1723.97,644.252 1727.51,644.252 1731.05,644.252 1732.82,644.252 1734.59,644.252 1735.48,644.252 1736.36,644.252 1736.81,644.252 1737.25,644.252 1737.69,644.252 1738.13,504.93 1738.58,504.93 1739.02,504.93 1739.46,504.93 1739.91,504.93 1740.79,504.93 1741.68,504.93 1743.45,504.93 1745.22,504.93 1748.77,504.93 1752.32,504.93 1759.41,504.93 1766.5,504.93 1780.68,504.93 1794.86,504.93 1829.43,504.93 1864.01,504.93 1892.35,504.93 1920.69,504.93 1925.01,504.93 1929.32,504.93 1933.64,504.93 1937.96,504.93 1939.04,504.93 1940.12,504.93 1940.66,504.93 1941.2,504.93 1941.74,504.93 1942.27,504.93 1942.81,365.609 1943.35,365.609 1943.89,365.609 1944.43,365.609 1945.51,365.609 1946.59,365.609 1948.75,365.609 1950.91,365.609 1953.07,365.609 1955.23,365.609 1963.86,365.609 1972.5,365.609 1981.13,365.609 1989.76,365.609 2046.38,365.609 2103.19,365.609 2111.83,365.609 2120.47,365.609 2129.11,365.609 2137.75,365.609 2139.91,365.609 2142.07,365.609 2143.15,365.609 2144.23,365.609 2144.77,365.609 2145.31,365.609 2145.85,365.609 2146.39,365.609 2146.93,365.609 2147.47,226.287 2148.01,226.287 2148.55,226.287 2149.63,226.287 2150.71,226.287 2152.87,226.287 2155.03,226.287 2159.35,226.287 2163.67,226.287 2167.99,226.287 2172.31,226.287 2200.46,226.287 2228.61,226.287 2280.15,226.287 2331.7,226.287 2342.23,226.287 2352.76,86.9658 "/>
<polyline clip-path="url(#clip582)" style="stroke:#e26f46; stroke-linecap:round; stroke-linejoin:round; stroke-width:12; stroke-opacity:1; fill:none" points="509.646,1411.02 527.906,1398.59 630.097,1329.01 699.873,1281.5 756.449,1242.98 813.276,1204.29 882.393,1157.23 939.043,1118.66 995.735,1080.06 1064.89,1032.98 1121.59,994.378 1190.67,947.34 1247.3,908.787 1304.07,870.131 1373.2,823.062 1429.87,784.48 1486.51,745.916 1555.68,698.819 1612.39,660.208 1681.49,613.16 1738.13,574.595 1794.86,535.974 1864.01,488.895 1920.69,450.302 1989.76,403.271 2046.38,364.725 2103.19,326.047 2172.31,278.984 2228.61,240.65 2331.7,170.462 2352.76,156.125 "/>
<path clip-path="url(#clip580)" d="M571.083 327.307 L1236.99 327.307 L1236.99 94.0274 L571.083 94.0274  Z" fill="#ffffff" fill-rule="evenodd" fill-opacity="1"/>
<polyline clip-path="url(#clip580)" style="stroke:#000000; stroke-linecap:round; stroke-linejoin:round; stroke-width:4; stroke-opacity:1; fill:none" points="571.083,327.307 1236.99,327.307 1236.99,94.0274 571.083,94.0274 571.083,327.307 "/>
<polyline clip-path="url(#clip580)" style="stroke:#009af9; stroke-linecap:round; stroke-linejoin:round; stroke-width:18; stroke-opacity:1; fill:none" points="591.562,171.787 714.436,171.787 "/>
<path clip-path="url(#clip580)" d="M755.679 201.318 Q752.971 208.263 750.401 210.381 Q747.832 212.499 743.526 212.499 L738.422 212.499 L738.422 207.152 L742.172 207.152 Q744.811 207.152 746.269 205.902 Q747.728 204.652 749.498 199.999 L750.644 197.082 L734.915 158.819 L741.686 158.819 L753.839 189.235 L765.991 158.819 L772.762 158.819 L755.679 201.318 Z" fill="#000000" fill-rule="nonzero" fill-opacity="1" /><path clip-path="url(#clip580)" d="M805.019 165.416 L849.533 165.416 L849.533 171.249 L805.019 171.249 L805.019 165.416 M805.019 179.582 L849.533 179.582 L849.533 185.485 L805.019 185.485 L805.019 179.582 Z" fill="#000000" fill-rule="nonzero" fill-opacity="1" /><path clip-path="url(#clip580)" d="M919.636 176.666 L919.636 179.791 L890.261 179.791 Q890.678 186.388 894.22 189.86 Q897.796 193.298 904.15 193.298 Q907.831 193.298 911.268 192.395 Q914.741 191.492 918.143 189.687 L918.143 195.728 Q914.706 197.187 911.095 197.95 Q907.484 198.714 903.768 198.714 Q894.463 198.714 889.011 193.298 Q883.595 187.881 883.595 178.645 Q883.595 169.096 888.734 163.506 Q893.907 157.881 902.657 157.881 Q910.504 157.881 915.053 162.951 Q919.636 167.985 919.636 176.666 M913.247 174.791 Q913.178 169.548 910.296 166.423 Q907.449 163.298 902.727 163.298 Q897.379 163.298 894.15 166.319 Q890.956 169.339 890.47 174.826 L913.247 174.791 Z" fill="#000000" fill-rule="nonzero" fill-opacity="1" /><path clip-path="url(#clip580)" d="M961.199 158.819 L947.136 177.742 L961.928 197.707 L954.393 197.707 L943.074 182.43 L931.754 197.707 L924.22 197.707 L939.324 177.36 L925.504 158.819 L933.039 158.819 L943.351 172.673 L953.664 158.819 L961.199 158.819 Z" fill="#000000" fill-rule="nonzero" fill-opacity="1" /><path clip-path="url(#clip580)" d="M977.136 191.874 L977.136 212.499 L970.712 212.499 L970.712 158.819 L977.136 158.819 L977.136 164.721 Q979.15 161.249 982.205 159.583 Q985.296 157.881 989.566 157.881 Q996.65 157.881 1001.06 163.506 Q1005.5 169.131 1005.5 178.298 Q1005.5 187.464 1001.06 193.089 Q996.65 198.714 989.566 198.714 Q985.296 198.714 982.205 197.048 Q979.15 195.346 977.136 191.874 M998.872 178.298 Q998.872 171.249 995.955 167.256 Q993.073 163.228 988.004 163.228 Q982.935 163.228 980.018 167.256 Q977.136 171.249 977.136 178.298 Q977.136 185.346 980.018 189.374 Q982.935 193.367 988.004 193.367 Q993.073 193.367 995.955 189.374 Q998.872 185.346 998.872 178.298 Z" fill="#000000" fill-rule="nonzero" fill-opacity="1" /><path clip-path="url(#clip580)" d="M1031.44 143.749 Q1026.79 151.735 1024.53 159.548 Q1022.27 167.36 1022.27 175.381 Q1022.27 183.402 1024.53 191.284 Q1026.82 199.131 1031.44 207.082 L1025.89 207.082 Q1020.68 198.923 1018.07 191.041 Q1015.5 183.159 1015.5 175.381 Q1015.5 167.638 1018.07 159.791 Q1020.64 151.944 1025.89 143.749 L1031.44 143.749 Z" fill="#000000" fill-rule="nonzero" fill-opacity="1" /><path clip-path="url(#clip580)" d="M1076.16 158.819 L1062.1 177.742 L1076.89 197.707 L1069.36 197.707 L1058.04 182.43 L1046.72 197.707 L1039.18 197.707 L1054.29 177.36 L1040.47 158.819 L1048 158.819 L1058.32 172.673 L1068.63 158.819 L1076.16 158.819 Z" fill="#000000" fill-rule="nonzero" fill-opacity="1" /><path clip-path="url(#clip580)" d="M1084.91 143.749 L1090.47 143.749 Q1095.68 151.944 1098.25 159.791 Q1100.85 167.638 1100.85 175.381 Q1100.85 183.159 1098.25 191.041 Q1095.68 198.923 1090.47 207.082 L1084.91 207.082 Q1089.53 199.131 1091.79 191.284 Q1094.08 183.402 1094.08 175.381 Q1094.08 167.36 1091.79 159.548 Q1089.53 151.735 1084.91 143.749 Z" fill="#000000" fill-rule="nonzero" fill-opacity="1" /><path clip-path="url(#clip580)" d="M1133.04 175.381 L1151.75 175.381 L1151.75 181.076 L1133.04 181.076 L1133.04 175.381 Z" fill="#000000" fill-rule="nonzero" fill-opacity="1" /><path clip-path="url(#clip580)" d="M1186.65 191.805 L1198.11 191.805 L1198.11 152.256 L1185.64 154.756 L1185.64 148.367 L1198.04 145.867 L1205.05 145.867 L1205.05 191.805 L1216.51 191.805 L1216.51 197.707 L1186.65 197.707 L1186.65 191.805 Z" fill="#000000" fill-rule="nonzero" fill-opacity="1" /><polyline clip-path="url(#clip580)" style="stroke:#e26f46; stroke-linecap:round; stroke-linejoin:round; stroke-width:18; stroke-opacity:1; fill:none" points="591.562,249.547 714.436,249.547 "/>
<path clip-path="url(#clip580)" d="M755.679 279.078 Q752.971 286.023 750.401 288.141 Q747.832 290.259 743.526 290.259 L738.422 290.259 L738.422 284.912 L742.172 284.912 Q744.811 284.912 746.269 283.662 Q747.728 282.412 749.498 277.759 L750.644 274.842 L734.915 236.579 L741.686 236.579 L753.839 266.995 L765.991 236.579 L772.762 236.579 L755.679 279.078 Z" fill="#000000" fill-rule="nonzero" fill-opacity="1" /><path clip-path="url(#clip580)" d="M805.019 243.176 L849.533 243.176 L849.533 249.009 L805.019 249.009 L805.019 243.176 M805.019 257.342 L849.533 257.342 L849.533 263.245 L805.019 263.245 L805.019 257.342 Z" fill="#000000" fill-rule="nonzero" fill-opacity="1" /><path clip-path="url(#clip580)" d="M919.636 254.426 L919.636 257.551 L890.261 257.551 Q890.678 264.148 894.22 267.62 Q897.796 271.058 904.15 271.058 Q907.831 271.058 911.268 270.155 Q914.741 269.252 918.143 267.447 L918.143 273.488 Q914.706 274.947 911.095 275.71 Q907.484 276.474 903.768 276.474 Q894.463 276.474 889.011 271.058 Q883.595 265.641 883.595 256.405 Q883.595 246.856 888.734 241.266 Q893.907 235.641 902.657 235.641 Q910.504 235.641 915.053 240.711 Q919.636 245.745 919.636 254.426 M913.247 252.551 Q913.178 247.308 910.296 244.183 Q907.449 241.058 902.727 241.058 Q897.379 241.058 894.15 244.079 Q890.956 247.099 890.47 252.586 L913.247 252.551 Z" fill="#000000" fill-rule="nonzero" fill-opacity="1" /><path clip-path="url(#clip580)" d="M961.199 236.579 L947.136 255.502 L961.928 275.467 L954.393 275.467 L943.074 260.19 L931.754 275.467 L924.22 275.467 L939.324 255.12 L925.504 236.579 L933.039 236.579 L943.351 250.433 L953.664 236.579 L961.199 236.579 Z" fill="#000000" fill-rule="nonzero" fill-opacity="1" /><path clip-path="url(#clip580)" d="M977.136 269.634 L977.136 290.259 L970.712 290.259 L970.712 236.579 L977.136 236.579 L977.136 242.481 Q979.15 239.009 982.205 237.343 Q985.296 235.641 989.566 235.641 Q996.65 235.641 1001.06 241.266 Q1005.5 246.891 1005.5 256.058 Q1005.5 265.224 1001.06 270.849 Q996.65 276.474 989.566 276.474 Q985.296 276.474 982.205 274.808 Q979.15 273.106 977.136 269.634 M998.872 256.058 Q998.872 249.009 995.955 245.016 Q993.073 240.988 988.004 240.988 Q982.935 240.988 980.018 245.016 Q977.136 249.009 977.136 256.058 Q977.136 263.106 980.018 267.134 Q982.935 271.127 988.004 271.127 Q993.073 271.127 995.955 267.134 Q998.872 263.106 998.872 256.058 Z" fill="#000000" fill-rule="nonzero" fill-opacity="1" /><path clip-path="url(#clip580)" d="M1046.37 244.044 Q1048.77 239.738 1052.1 237.69 Q1055.43 235.641 1059.95 235.641 Q1066.02 235.641 1069.32 239.912 Q1072.62 244.148 1072.62 251.995 L1072.62 275.467 L1066.2 275.467 L1066.2 252.204 Q1066.2 246.613 1064.22 243.905 Q1062.24 241.197 1058.18 241.197 Q1053.21 241.197 1050.33 244.495 Q1047.45 247.794 1047.45 253.488 L1047.45 275.467 L1041.02 275.467 L1041.02 252.204 Q1041.02 246.579 1039.05 243.905 Q1037.07 241.197 1032.93 241.197 Q1028.04 241.197 1025.16 244.53 Q1022.27 247.829 1022.27 253.488 L1022.27 275.467 L1015.85 275.467 L1015.85 236.579 L1022.27 236.579 L1022.27 242.62 Q1024.46 239.044 1027.52 237.343 Q1030.57 235.641 1034.77 235.641 Q1039.01 235.641 1041.96 237.794 Q1044.95 239.947 1046.37 244.044 Z" fill="#000000" fill-rule="nonzero" fill-opacity="1" /><path clip-path="url(#clip580)" d="M1087.48 269.565 L1098.94 269.565 L1098.94 230.016 L1086.48 232.516 L1086.48 226.127 L1098.87 223.627 L1105.89 223.627 L1105.89 269.565 L1117.34 269.565 L1117.34 275.467 L1087.48 275.467 L1087.48 269.565 Z" fill="#000000" fill-rule="nonzero" fill-opacity="1" /><path clip-path="url(#clip580)" d="M1145.95 221.509 Q1141.3 229.495 1139.04 237.308 Q1136.79 245.12 1136.79 253.141 Q1136.79 261.162 1139.04 269.044 Q1141.34 276.891 1145.95 284.842 L1140.4 284.842 Q1135.19 276.683 1132.59 268.801 Q1130.02 260.919 1130.02 253.141 Q1130.02 245.398 1132.59 237.551 Q1135.16 229.704 1140.4 221.509 L1145.95 221.509 Z" fill="#000000" fill-rule="nonzero" fill-opacity="1" /><path clip-path="url(#clip580)" d="M1190.68 236.579 L1176.61 255.502 L1191.41 275.467 L1183.87 275.467 L1172.55 260.19 L1161.23 275.467 L1153.7 275.467 L1168.8 255.12 L1154.98 236.579 L1162.52 236.579 L1172.83 250.433 L1183.14 236.579 L1190.68 236.579 Z" fill="#000000" fill-rule="nonzero" fill-opacity="1" /><path clip-path="url(#clip580)" d="M1199.43 221.509 L1204.98 221.509 Q1210.19 229.704 1212.76 237.551 Q1215.36 245.398 1215.36 253.141 Q1215.36 260.919 1212.76 268.801 Q1210.19 276.683 1204.98 284.842 L1199.43 284.842 Q1204.04 276.891 1206.3 269.044 Q1208.59 261.162 1208.59 253.141 Q1208.59 245.12 1206.3 237.308 Q1204.04 229.495 1199.43 221.509 Z" fill="#000000" fill-rule="nonzero" fill-opacity="1" /></svg>
