<?xml version="1.0" encoding="utf-8"?>
<svg xmlns="http://www.w3.org/2000/svg" xmlns:xlink="http://www.w3.org/1999/xlink" width="600" height="400" viewBox="0 0 2400 1600">
<defs>
  <clipPath id="clip570">
    <rect x="0" y="0" width="2400" height="1600"/>
  </clipPath>
</defs>
<path clip-path="url(#clip570)" d="M0 1600 L2400 1600 L2400 0 L0 0  Z" fill="#ffffff" fill-rule="evenodd" fill-opacity="1"/>
<defs>
  <clipPath id="clip571">
    <rect x="509" y="47" width="1844" height="1404"/>
  </clipPath>
</defs>
<path clip-path="url(#clip570)" d="M235.915 1450.74 L2352.76 1450.74 L2352.76 47.2441 L235.915 47.2441  Z" fill="#ffffff" fill-rule="evenodd" fill-opacity="1"/>
<defs>
  <clipPath id="clip572">
    <rect x="235" y="47" width="2118" height="1404"/>
  </clipPath>
</defs>
<polyline clip-path="url(#clip572)" style="stroke:#000000; stroke-linecap:round; stroke-linejoin:round; stroke-width:2; stroke-opacity:0.1; fill:none" points="235.915,1450.74 235.915,47.2441 "/>
<polyline clip-path="url(#clip572)" style="stroke:#000000; stroke-linecap:round; stroke-linejoin:round; stroke-width:2; stroke-opacity:0.1; fill:none" points="765.125,1450.74 765.125,47.2441 "/>
<polyline clip-path="url(#clip572)" style="stroke:#000000; stroke-linecap:round; stroke-linejoin:round; stroke-width:2; stroke-opacity:0.1; fill:none" points="1294.34,1450.74 1294.34,47.2441 "/>
<polyline clip-path="url(#clip572)" style="stroke:#000000; stroke-linecap:round; stroke-linejoin:round; stroke-width:2; stroke-opacity:0.1; fill:none" points="1823.55,1450.74 1823.55,47.2441 "/>
<polyline clip-path="url(#clip572)" style="stroke:#000000; stroke-linecap:round; stroke-linejoin:round; stroke-width:2; stroke-opacity:0.1; fill:none" points="2352.76,1450.74 2352.76,47.2441 "/>
<polyline clip-path="url(#clip572)" style="stroke:#000000; stroke-linecap:round; stroke-linejoin:round; stroke-width:2; stroke-opacity:0.1; fill:none" points="235.915,1411.12 2352.76,1411.12 "/>
<polyline clip-path="url(#clip572)" style="stroke:#000000; stroke-linecap:round; stroke-linejoin:round; stroke-width:2; stroke-opacity:0.1; fill:none" points="235.915,1080.08 2352.76,1080.08 "/>
<polyline clip-path="url(#clip572)" style="stroke:#000000; stroke-linecap:round; stroke-linejoin:round; stroke-width:2; stroke-opacity:0.1; fill:none" points="235.915,749.042 2352.76,749.042 "/>
<polyline clip-path="url(#clip572)" style="stroke:#000000; stroke-linecap:round; stroke-linejoin:round; stroke-width:2; stroke-opacity:0.1; fill:none" points="235.915,418.004 2352.76,418.004 "/>
<polyline clip-path="url(#clip572)" style="stroke:#000000; stroke-linecap:round; stroke-linejoin:round; stroke-width:2; stroke-opacity:0.1; fill:none" points="235.915,86.9658 2352.76,86.9658 "/>
<polyline clip-path="url(#clip570)" style="stroke:#000000; stroke-linecap:round; stroke-linejoin:round; stroke-width:4; stroke-opacity:1; fill:none" points="235.915,1450.74 2352.76,1450.74 "/>
<polyline clip-path="url(#clip570)" style="stroke:#000000; stroke-linecap:round; stroke-linejoin:round; stroke-width:4; stroke-opacity:1; fill:none" points="235.915,1450.74 235.915,1431.85 "/>
<polyline clip-path="url(#clip570)" style="stroke:#000000; stroke-linecap:round; stroke-linejoin:round; stroke-width:4; stroke-opacity:1; fill:none" points="765.125,1450.74 765.125,1431.85 "/>
<polyline clip-path="url(#clip570)" style="stroke:#000000; stroke-linecap:round; stroke-linejoin:round; stroke-width:4; stroke-opacity:1; fill:none" points="1294.34,1450.74 1294.34,1431.85 "/>
<polyline clip-path="url(#clip570)" style="stroke:#000000; stroke-linecap:round; stroke-linejoin:round; stroke-width:4; stroke-opacity:1; fill:none" points="1823.55,1450.74 1823.55,1431.85 "/>
<polyline clip-path="url(#clip570)" style="stroke:#000000; stroke-linecap:round; stroke-linejoin:round; stroke-width:4; stroke-opacity:1; fill:none" points="2352.76,1450.74 2352.76,1431.85 "/>
<path clip-path="url(#clip570)" d="M25.2932 1532.99 L69.8069 1532.99 L69.8069 1538.89 L25.2932 1538.89 L25.2932 1532.99 Z" fill="#000000" fill-rule="nonzero" fill-opacity="1" /><path clip-path="url(#clip570)" d="M86.161 1552.33 L97.6192 1552.33 L97.6192 1512.78 L85.154 1515.28 L85.154 1508.89 L97.5498 1506.39 L104.564 1506.39 L104.564 1552.33 L116.022 1552.33 L116.022 1558.23 L86.161 1558.23 L86.161 1552.33 Z" fill="#000000" fill-rule="nonzero" fill-opacity="1" /><path clip-path="url(#clip570)" d="M130.189 1549.41 L137.515 1549.41 L137.515 1558.23 L130.189 1558.23 L130.189 1549.41 Z" fill="#000000" fill-rule="nonzero" fill-opacity="1" /><path clip-path="url(#clip570)" d="M167.792 1511.01 Q162.376 1511.01 159.633 1516.36 Q156.924 1521.67 156.924 1532.37 Q156.924 1543.02 159.633 1548.37 Q162.376 1553.68 167.792 1553.68 Q173.244 1553.68 175.952 1548.37 Q178.695 1543.02 178.695 1532.37 Q178.695 1521.67 175.952 1516.36 Q173.244 1511.01 167.792 1511.01 M167.792 1505.46 Q176.508 1505.46 181.091 1512.37 Q185.709 1519.24 185.709 1532.37 Q185.709 1545.46 181.091 1552.37 Q176.508 1559.24 167.792 1559.24 Q159.077 1559.24 154.459 1552.37 Q149.876 1545.46 149.876 1532.37 Q149.876 1519.24 154.459 1512.37 Q159.077 1505.46 167.792 1505.46 Z" fill="#000000" fill-rule="nonzero" fill-opacity="1" /><path clip-path="url(#clip570)" d="M240.292 1520.04 L224.424 1535.98 L240.292 1551.84 L236.16 1556.05 L220.223 1540.11 L204.285 1556.05 L200.188 1551.84 L216.021 1535.98 L200.188 1520.04 L204.285 1515.84 L220.223 1531.77 L236.16 1515.84 L240.292 1520.04 Z" fill="#000000" fill-rule="nonzero" fill-opacity="1" /><path clip-path="url(#clip570)" d="M258.834 1552.33 L270.292 1552.33 L270.292 1512.78 L257.827 1515.28 L257.827 1508.89 L270.222 1506.39 L277.236 1506.39 L277.236 1552.33 L288.695 1552.33 L288.695 1558.23 L258.834 1558.23 L258.834 1552.33 Z" fill="#000000" fill-rule="nonzero" fill-opacity="1" /><path clip-path="url(#clip570)" d="M317.861 1511.01 Q312.444 1511.01 309.701 1516.36 Q306.993 1521.67 306.993 1532.37 Q306.993 1543.02 309.701 1548.37 Q312.444 1553.68 317.861 1553.68 Q323.312 1553.68 326.021 1548.37 Q328.764 1543.02 328.764 1532.37 Q328.764 1521.67 326.021 1516.36 Q323.312 1511.01 317.861 1511.01 M317.861 1505.46 Q326.576 1505.46 331.16 1512.37 Q335.778 1519.24 335.778 1532.37 Q335.778 1545.46 331.16 1552.37 Q326.576 1559.24 317.861 1559.24 Q309.146 1559.24 304.528 1552.37 Q299.945 1545.46 299.945 1532.37 Q299.945 1519.24 304.528 1512.37 Q309.146 1505.46 317.861 1505.46 Z" fill="#000000" fill-rule="nonzero" fill-opacity="1" /><path clip-path="url(#clip570)" d="M335.778 1496.61 L371.945 1496.61 L371.945 1501.4 L335.778 1501.4 L335.778 1496.61 Z" fill="#000000" fill-rule="nonzero" fill-opacity="1" /><path clip-path="url(#clip570)" d="M385.233 1512.32 L394.543 1512.32 L394.543 1480.19 L384.415 1482.22 L384.415 1477.03 L394.486 1475 L400.185 1475 L400.185 1512.32 L409.495 1512.32 L409.495 1517.12 L385.233 1517.12 L385.233 1512.32 Z" fill="#000000" fill-rule="nonzero" fill-opacity="1" /><path clip-path="url(#clip570)" d="M421.062 1475 L443.433 1475 L443.433 1479.79 L426.281 1479.79 L426.281 1490.12 Q427.522 1489.7 428.763 1489.5 Q430.005 1489.27 431.246 1489.27 Q438.299 1489.27 442.418 1493.14 Q446.537 1497 446.537 1503.6 Q446.537 1510.4 442.305 1514.18 Q438.073 1517.94 430.371 1517.94 Q427.719 1517.94 424.955 1517.48 Q422.218 1517.03 419.284 1516.13 L419.284 1510.4 Q421.823 1511.79 424.532 1512.46 Q427.24 1513.14 430.259 1513.14 Q435.139 1513.14 437.989 1510.57 Q440.838 1508.01 440.838 1503.6 Q440.838 1499.2 437.989 1496.64 Q435.139 1494.07 430.259 1494.07 Q427.973 1494.07 425.688 1494.58 Q423.431 1495.08 421.062 1496.16 L421.062 1475 Z" fill="#000000" fill-rule="nonzero" fill-opacity="1" /><path clip-path="url(#clip570)" d="M553.798 1532.99 L598.312 1532.99 L598.312 1538.89 L553.798 1538.89 L553.798 1532.99 Z" fill="#000000" fill-rule="nonzero" fill-opacity="1" /><path clip-path="url(#clip570)" d="M613.52 1506.39 L641.055 1506.39 L641.055 1512.3 L619.944 1512.3 L619.944 1525 Q621.471 1524.48 622.999 1524.24 Q624.527 1523.96 626.055 1523.96 Q634.735 1523.96 639.805 1528.72 Q644.874 1533.48 644.874 1541.6 Q644.874 1549.97 639.666 1554.62 Q634.457 1559.24 624.978 1559.24 Q621.714 1559.24 618.312 1558.68 Q614.944 1558.13 611.333 1557.02 L611.333 1549.97 Q614.458 1551.67 617.791 1552.5 Q621.124 1553.34 624.839 1553.34 Q630.846 1553.34 634.353 1550.18 Q637.86 1547.02 637.86 1541.6 Q637.86 1536.18 634.353 1533.02 Q630.846 1529.87 624.839 1529.87 Q622.027 1529.87 619.215 1530.49 Q616.437 1531.12 613.52 1532.43 L613.52 1506.39 Z" fill="#000000" fill-rule="nonzero" fill-opacity="1" /><path clip-path="url(#clip570)" d="M658.693 1549.41 L666.02 1549.41 L666.02 1558.23 L658.693 1558.23 L658.693 1549.41 Z" fill="#000000" fill-rule="nonzero" fill-opacity="1" /><path clip-path="url(#clip570)" d="M696.297 1511.01 Q690.881 1511.01 688.138 1516.36 Q685.429 1521.67 685.429 1532.37 Q685.429 1543.02 688.138 1548.37 Q690.881 1553.68 696.297 1553.68 Q701.749 1553.68 704.457 1548.37 Q707.2 1543.02 707.2 1532.37 Q707.2 1521.67 704.457 1516.36 Q701.749 1511.01 696.297 1511.01 M696.297 1505.46 Q705.013 1505.46 709.596 1512.37 Q714.214 1519.24 714.214 1532.37 Q714.214 1545.46 709.596 1552.37 Q705.013 1559.24 696.297 1559.24 Q687.582 1559.24 682.964 1552.37 Q678.381 1545.46 678.381 1532.37 Q678.381 1519.24 682.964 1512.37 Q687.582 1505.46 696.297 1505.46 Z" fill="#000000" fill-rule="nonzero" fill-opacity="1" /><path clip-path="url(#clip570)" d="M768.797 1520.04 L752.929 1535.98 L768.797 1551.84 L764.665 1556.05 L748.728 1540.11 L732.79 1556.05 L728.693 1551.84 L744.526 1535.98 L728.693 1520.04 L732.79 1515.84 L748.728 1531.77 L764.665 1515.84 L768.797 1520.04 Z" fill="#000000" fill-rule="nonzero" fill-opacity="1" /><path clip-path="url(#clip570)" d="M787.339 1552.33 L798.797 1552.33 L798.797 1512.78 L786.332 1515.28 L786.332 1508.89 L798.727 1506.39 L805.741 1506.39 L805.741 1552.33 L817.2 1552.33 L817.2 1558.23 L787.339 1558.23 L787.339 1552.33 Z" fill="#000000" fill-rule="nonzero" fill-opacity="1" /><path clip-path="url(#clip570)" d="M846.366 1511.01 Q840.949 1511.01 838.206 1516.36 Q835.498 1521.67 835.498 1532.37 Q835.498 1543.02 838.206 1548.37 Q840.949 1553.68 846.366 1553.68 Q851.817 1553.68 854.526 1548.37 Q857.269 1543.02 857.269 1532.37 Q857.269 1521.67 854.526 1516.36 Q851.817 1511.01 846.366 1511.01 M846.366 1505.46 Q855.081 1505.46 859.665 1512.37 Q864.283 1519.24 864.283 1532.37 Q864.283 1545.46 859.665 1552.37 Q855.081 1559.24 846.366 1559.24 Q837.651 1559.24 833.033 1552.37 Q828.449 1545.46 828.449 1532.37 Q828.449 1519.24 833.033 1512.37 Q837.651 1505.46 846.366 1505.46 Z" fill="#000000" fill-rule="nonzero" fill-opacity="1" /><path clip-path="url(#clip570)" d="M864.283 1496.61 L900.45 1496.61 L900.45 1501.4 L864.283 1501.4 L864.283 1496.61 Z" fill="#000000" fill-rule="nonzero" fill-opacity="1" /><path clip-path="url(#clip570)" d="M913.738 1512.32 L923.048 1512.32 L923.048 1480.19 L912.92 1482.22 L912.92 1477.03 L922.991 1475 L928.69 1475 L928.69 1512.32 L938 1512.32 L938 1517.12 L913.738 1517.12 L913.738 1512.32 Z" fill="#000000" fill-rule="nonzero" fill-opacity="1" /><path clip-path="url(#clip570)" d="M962.403 1493.79 Q958.566 1493.79 956.309 1496.41 Q954.08 1499.03 954.08 1503.6 Q954.08 1508.15 956.309 1510.8 Q958.566 1513.42 962.403 1513.42 Q966.24 1513.42 968.468 1510.8 Q970.725 1508.15 970.725 1503.6 Q970.725 1499.03 968.468 1496.41 Q966.24 1493.79 962.403 1493.79 M973.716 1475.93 L973.716 1481.12 Q971.572 1480.1 969.371 1479.57 Q967.199 1479.03 965.055 1479.03 Q959.412 1479.03 956.422 1482.84 Q953.46 1486.65 953.037 1494.35 Q954.701 1491.9 957.212 1490.6 Q959.723 1489.27 962.741 1489.27 Q969.089 1489.27 972.756 1493.14 Q976.452 1496.97 976.452 1503.6 Q976.452 1510.09 972.615 1514.01 Q968.779 1517.94 962.403 1517.94 Q955.096 1517.94 951.231 1512.35 Q947.366 1506.74 947.366 1496.1 Q947.366 1486.11 952.106 1480.19 Q956.845 1474.24 964.829 1474.24 Q966.973 1474.24 969.145 1474.66 Q971.346 1475.08 973.716 1475.93 Z" fill="#000000" fill-rule="nonzero" fill-opacity="1" /><path clip-path="url(#clip570)" d="M1294.34 1487.52 Q1288.92 1487.52 1286.18 1492.87 Q1283.47 1498.18 1283.47 1508.88 Q1283.47 1519.53 1286.18 1524.88 Q1288.92 1530.19 1294.34 1530.19 Q1299.79 1530.19 1302.5 1524.88 Q1305.24 1519.53 1305.24 1508.88 Q1305.24 1498.18 1302.5 1492.87 Q1299.79 1487.52 1294.34 1487.52 M1294.34 1481.97 Q1303.05 1481.97 1307.63 1488.88 Q1312.25 1495.75 1312.25 1508.88 Q1312.25 1521.97 1307.63 1528.88 Q1303.05 1535.75 1294.34 1535.75 Q1285.62 1535.75 1281 1528.88 Q1276.42 1521.97 1276.42 1508.88 Q1276.42 1495.75 1281 1488.88 Q1285.62 1481.97 1294.34 1481.97 Z" fill="#000000" fill-rule="nonzero" fill-opacity="1" /><path clip-path="url(#clip570)" d="M1643.17 1506.39 L1670.71 1506.39 L1670.71 1512.3 L1649.6 1512.3 L1649.6 1525 Q1651.12 1524.48 1652.65 1524.24 Q1654.18 1523.96 1655.71 1523.96 Q1664.39 1523.96 1669.46 1528.72 Q1674.53 1533.48 1674.53 1541.6 Q1674.53 1549.97 1669.32 1554.62 Q1664.11 1559.24 1654.63 1559.24 Q1651.37 1559.24 1647.97 1558.68 Q1644.6 1558.13 1640.99 1557.02 L1640.99 1549.97 Q1644.11 1551.67 1647.44 1552.5 Q1650.78 1553.34 1654.49 1553.34 Q1660.5 1553.34 1664.01 1550.18 Q1667.51 1547.02 1667.51 1541.6 Q1667.51 1536.18 1664.01 1533.02 Q1660.5 1529.87 1654.49 1529.87 Q1651.68 1529.87 1648.87 1530.49 Q1646.09 1531.12 1643.17 1532.43 L1643.17 1506.39 Z" fill="#000000" fill-rule="nonzero" fill-opacity="1" /><path clip-path="url(#clip570)" d="M1688.35 1549.41 L1695.67 1549.41 L1695.67 1558.23 L1688.35 1558.23 L1688.35 1549.41 Z" fill="#000000" fill-rule="nonzero" fill-opacity="1" /><path clip-path="url(#clip570)" d="M1725.95 1511.01 Q1720.53 1511.01 1717.79 1516.36 Q1715.08 1521.67 1715.08 1532.37 Q1715.08 1543.02 1717.79 1548.37 Q1720.53 1553.68 1725.95 1553.68 Q1731.4 1553.68 1734.11 1548.37 Q1736.85 1543.02 1736.85 1532.37 Q1736.85 1521.67 1734.11 1516.36 Q1731.4 1511.01 1725.95 1511.01 M1725.95 1505.46 Q1734.67 1505.46 1739.25 1512.37 Q1743.87 1519.24 1743.87 1532.37 Q1743.87 1545.46 1739.25 1552.37 Q1734.67 1559.24 1725.95 1559.24 Q1717.24 1559.24 1712.62 1552.37 Q1708.03 1545.46 1708.03 1532.37 Q1708.03 1519.24 1712.62 1512.37 Q1717.24 1505.46 1725.95 1505.46 Z" fill="#000000" fill-rule="nonzero" fill-opacity="1" /><path clip-path="url(#clip570)" d="M1798.45 1520.04 L1782.58 1535.98 L1798.45 1551.84 L1794.32 1556.05 L1778.38 1540.11 L1762.44 1556.05 L1758.35 1551.84 L1774.18 1535.98 L1758.35 1520.04 L1762.44 1515.84 L1778.38 1531.77 L1794.32 1515.84 L1798.45 1520.04 Z" fill="#000000" fill-rule="nonzero" fill-opacity="1" /><path clip-path="url(#clip570)" d="M1816.99 1552.33 L1828.45 1552.33 L1828.45 1512.78 L1815.98 1515.28 L1815.98 1508.89 L1828.38 1506.39 L1835.39 1506.39 L1835.39 1552.33 L1846.85 1552.33 L1846.85 1558.23 L1816.99 1558.23 L1816.99 1552.33 Z" fill="#000000" fill-rule="nonzero" fill-opacity="1" /><path clip-path="url(#clip570)" d="M1876.02 1511.01 Q1870.6 1511.01 1867.86 1516.36 Q1865.15 1521.67 1865.15 1532.37 Q1865.15 1543.02 1867.86 1548.37 Q1870.6 1553.68 1876.02 1553.68 Q1881.47 1553.68 1884.18 1548.37 Q1886.92 1543.02 1886.92 1532.37 Q1886.92 1521.67 1884.18 1516.36 Q1881.47 1511.01 1876.02 1511.01 M1876.02 1505.46 Q1884.73 1505.46 1889.32 1512.37 Q1893.94 1519.24 1893.94 1532.37 Q1893.94 1545.46 1889.32 1552.37 Q1884.73 1559.24 1876.02 1559.24 Q1867.3 1559.24 1862.69 1552.37 Q1858.1 1545.46 1858.1 1532.37 Q1858.1 1519.24 1862.69 1512.37 Q1867.3 1505.46 1876.02 1505.46 Z" fill="#000000" fill-rule="nonzero" fill-opacity="1" /><path clip-path="url(#clip570)" d="M1893.94 1496.61 L1930.1 1496.61 L1930.1 1501.4 L1893.94 1501.4 L1893.94 1496.61 Z" fill="#000000" fill-rule="nonzero" fill-opacity="1" /><path clip-path="url(#clip570)" d="M1943.39 1512.32 L1952.7 1512.32 L1952.7 1480.19 L1942.57 1482.22 L1942.57 1477.03 L1952.64 1475 L1958.34 1475 L1958.34 1512.32 L1967.65 1512.32 L1967.65 1517.12 L1943.39 1517.12 L1943.39 1512.32 Z" fill="#000000" fill-rule="nonzero" fill-opacity="1" /><path clip-path="url(#clip570)" d="M1992.06 1493.79 Q1988.22 1493.79 1985.96 1496.41 Q1983.73 1499.03 1983.73 1503.6 Q1983.73 1508.15 1985.96 1510.8 Q1988.22 1513.42 1992.06 1513.42 Q1995.89 1513.42 1998.12 1510.8 Q2000.38 1508.15 2000.38 1503.6 Q2000.38 1499.03 1998.12 1496.41 Q1995.89 1493.79 1992.06 1493.79 M2003.37 1475.93 L2003.37 1481.12 Q2001.22 1480.1 1999.02 1479.57 Q1996.85 1479.03 1994.71 1479.03 Q1989.07 1479.03 1986.08 1482.84 Q1983.11 1486.65 1982.69 1494.35 Q1984.35 1491.9 1986.87 1490.6 Q1989.38 1489.27 1992.39 1489.27 Q1998.74 1489.27 2002.41 1493.14 Q2006.11 1496.97 2006.11 1503.6 Q2006.11 1510.09 2002.27 1514.01 Q1998.43 1517.94 1992.06 1517.94 Q1984.75 1517.94 1980.88 1512.35 Q1977.02 1506.74 1977.02 1496.1 Q1977.02 1486.11 1981.76 1480.19 Q1986.5 1474.24 1994.48 1474.24 Q1996.63 1474.24 1998.8 1474.66 Q2001 1475.08 2003.37 1475.93 Z" fill="#000000" fill-rule="nonzero" fill-opacity="1" /><path clip-path="url(#clip570)" d="M2173.07 1552.33 L2184.53 1552.33 L2184.53 1512.78 L2172.06 1515.28 L2172.06 1508.89 L2184.46 1506.39 L2191.47 1506.39 L2191.47 1552.33 L2202.93 1552.33 L2202.93 1558.23 L2173.07 1558.23 L2173.07 1552.33 Z" fill="#000000" fill-rule="nonzero" fill-opacity="1" /><path clip-path="url(#clip570)" d="M2217.1 1549.41 L2224.43 1549.41 L2224.43 1558.23 L2217.1 1558.23 L2217.1 1549.41 Z" fill="#000000" fill-rule="nonzero" fill-opacity="1" /><path clip-path="url(#clip570)" d="M2254.7 1511.01 Q2249.29 1511.01 2246.54 1516.36 Q2243.84 1521.67 2243.84 1532.37 Q2243.84 1543.02 2246.54 1548.37 Q2249.29 1553.68 2254.7 1553.68 Q2260.15 1553.68 2262.86 1548.37 Q2265.61 1543.02 2265.61 1532.37 Q2265.61 1521.67 2262.86 1516.36 Q2260.15 1511.01 2254.7 1511.01 M2254.7 1505.46 Q2263.42 1505.46 2268 1512.37 Q2272.62 1519.24 2272.62 1532.37 Q2272.62 1545.46 2268 1552.37 Q2263.42 1559.24 2254.7 1559.24 Q2245.99 1559.24 2241.37 1552.37 Q2236.79 1545.46 2236.79 1532.37 Q2236.79 1519.24 2241.37 1512.37 Q2245.99 1505.46 2254.7 1505.46 Z" fill="#000000" fill-rule="nonzero" fill-opacity="1" /><path clip-path="url(#clip570)" d="M2327.2 1520.04 L2311.33 1535.98 L2327.2 1551.84 L2323.07 1556.05 L2307.13 1540.11 L2291.2 1556.05 L2287.1 1551.84 L2302.93 1535.98 L2287.1 1520.04 L2291.2 1515.84 L2307.13 1531.77 L2323.07 1515.84 L2327.2 1520.04 Z" fill="#000000" fill-rule="nonzero" fill-opacity="1" /><path clip-path="url(#clip570)" d="M2345.74 1552.33 L2357.2 1552.33 L2357.2 1512.78 L2344.74 1515.28 L2344.74 1508.89 L2357.13 1506.39 L2364.15 1506.39 L2364.15 1552.33 L2375.61 1552.33 L2375.61 1558.23 L2345.74 1558.23 L2345.74 1552.33 Z" fill="#000000" fill-rule="nonzero" fill-opacity="1" /><path clip-path="url(#clip570)" d="M2404.77 1511.01 Q2399.36 1511.01 2396.61 1516.36 Q2393.9 1521.67 2393.9 1532.37 Q2393.9 1543.02 2396.61 1548.37 Q2399.36 1553.68 2404.77 1553.68 Q2410.22 1553.68 2412.93 1548.37 Q2415.67 1543.02 2415.67 1532.37 Q2415.67 1521.67 2412.93 1516.36 Q2410.22 1511.01 2404.77 1511.01 M2404.77 1505.46 Q2413.49 1505.46 2418.07 1512.37 Q2422.69 1519.24 2422.69 1532.37 Q2422.69 1545.46 2418.07 1552.37 Q2413.49 1559.24 2404.77 1559.24 Q2396.06 1559.24 2391.44 1552.37 Q2386.86 1545.46 2386.86 1532.37 Q2386.86 1519.24 2391.44 1512.37 Q2396.06 1505.46 2404.77 1505.46 Z" fill="#000000" fill-rule="nonzero" fill-opacity="1" /><path clip-path="url(#clip570)" d="M2422.69 1496.61 L2458.86 1496.61 L2458.86 1501.4 L2422.69 1501.4 L2422.69 1496.61 Z" fill="#000000" fill-rule="nonzero" fill-opacity="1" /><path clip-path="url(#clip570)" d="M2472.14 1512.32 L2481.45 1512.32 L2481.45 1480.19 L2471.33 1482.22 L2471.33 1477.03 L2481.4 1475 L2487.1 1475 L2487.1 1512.32 L2496.41 1512.32 L2496.41 1517.12 L2472.14 1517.12 L2472.14 1512.32 Z" fill="#000000" fill-rule="nonzero" fill-opacity="1" /><path clip-path="url(#clip570)" d="M2507.97 1475 L2530.34 1475 L2530.34 1479.79 L2513.19 1479.79 L2513.19 1490.12 Q2514.43 1489.7 2515.67 1489.5 Q2516.92 1489.27 2518.16 1489.27 Q2525.21 1489.27 2529.33 1493.14 Q2533.45 1497 2533.45 1503.6 Q2533.45 1510.4 2529.22 1514.18 Q2524.98 1517.94 2517.28 1517.94 Q2514.63 1517.94 2511.87 1517.48 Q2509.13 1517.03 2506.19 1516.13 L2506.19 1510.4 Q2508.73 1511.79 2511.44 1512.46 Q2514.15 1513.14 2517.17 1513.14 Q2522.05 1513.14 2524.9 1510.57 Q2527.75 1508.01 2527.75 1503.6 Q2527.75 1499.2 2524.9 1496.64 Q2522.05 1494.07 2517.17 1494.07 Q2514.88 1494.07 2512.6 1494.58 Q2510.34 1495.08 2507.97 1496.16 L2507.97 1475 Z" fill="#000000" fill-rule="nonzero" fill-opacity="1" /><polyline clip-path="url(#clip570)" style="stroke:#000000; stroke-linecap:round; stroke-linejoin:round; stroke-width:4; stroke-opacity:1; fill:none" points="235.915,1450.74 235.915,47.2441 "/>
<polyline clip-path="url(#clip570)" style="stroke:#000000; stroke-linecap:round; stroke-linejoin:round; stroke-width:4; stroke-opacity:1; fill:none" points="235.915,1411.12 254.813,1411.12 "/>
<polyline clip-path="url(#clip570)" style="stroke:#000000; stroke-linecap:round; stroke-linejoin:round; stroke-width:4; stroke-opacity:1; fill:none" points="235.915,1080.08 254.813,1080.08 "/>
<polyline clip-path="url(#clip570)" style="stroke:#000000; stroke-linecap:round; stroke-linejoin:round; stroke-width:4; stroke-opacity:1; fill:none" points="235.915,749.042 254.813,749.042 "/>
<polyline clip-path="url(#clip570)" style="stroke:#000000; stroke-linecap:round; stroke-linejoin:round; stroke-width:4; stroke-opacity:1; fill:none" points="235.915,418.004 254.813,418.004 "/>
<polyline clip-path="url(#clip570)" style="stroke:#000000; stroke-linecap:round; stroke-linejoin:round; stroke-width:4; stroke-opacity:1; fill:none" points="235.915,86.9658 254.813,86.9658 "/>
<path clip-path="url(#clip570)" d="M68.9087 1389.82 Q63.4921 1389.82 60.749 1395.16 Q58.0407 1400.48 58.0407 1411.17 Q58.0407 1421.83 60.749 1427.18 Q63.4921 1432.49 68.9087 1432.49 Q74.3601 1432.49 77.0684 1427.18 Q79.8114 1421.83 79.8114 1411.17 Q79.8114 1400.48 77.0684 1395.16 Q74.3601 1389.82 68.9087 1389.82 M68.9087 1384.26 Q77.6239 1384.26 82.2072 1391.17 Q86.8253 1398.04 86.8253 1411.17 Q86.8253 1424.26 82.2072 1431.17 Q77.6239 1438.04 68.9087 1438.04 Q60.1935 1438.04 55.5754 1431.17 Q50.9921 1424.26 50.9921 1411.17 Q50.9921 1398.04 55.5754 1391.17 Q60.1935 1384.26 68.9087 1384.26 Z" fill="#000000" fill-rule="nonzero" fill-opacity="1" /><path clip-path="url(#clip570)" d="M99.1516 1428.22 L106.478 1428.22 L106.478 1437.04 L99.1516 1437.04 L99.1516 1428.22 Z" fill="#000000" fill-rule="nonzero" fill-opacity="1" /><path clip-path="url(#clip570)" d="M136.756 1389.82 Q131.339 1389.82 128.596 1395.16 Q125.888 1400.48 125.888 1411.17 Q125.888 1421.83 128.596 1427.18 Q131.339 1432.49 136.756 1432.49 Q142.207 1432.49 144.915 1427.18 Q147.658 1421.83 147.658 1411.17 Q147.658 1400.48 144.915 1395.16 Q142.207 1389.82 136.756 1389.82 M136.756 1384.26 Q145.471 1384.26 150.054 1391.17 Q154.672 1398.04 154.672 1411.17 Q154.672 1424.26 150.054 1431.17 Q145.471 1438.04 136.756 1438.04 Q128.04 1438.04 123.422 1431.17 Q118.839 1424.26 118.839 1411.17 Q118.839 1398.04 123.422 1391.17 Q128.04 1384.26 136.756 1384.26 Z" fill="#000000" fill-rule="nonzero" fill-opacity="1" /><path clip-path="url(#clip570)" d="M181.998 1389.82 Q176.582 1389.82 173.839 1395.16 Q171.13 1400.48 171.13 1411.17 Q171.13 1421.83 173.839 1427.18 Q176.582 1432.49 181.998 1432.49 Q187.45 1432.49 190.158 1427.18 Q192.901 1421.83 192.901 1411.17 Q192.901 1400.48 190.158 1395.16 Q187.45 1389.82 181.998 1389.82 M181.998 1384.26 Q190.714 1384.26 195.297 1391.17 Q199.915 1398.04 199.915 1411.17 Q199.915 1424.26 195.297 1431.17 Q190.714 1438.04 181.998 1438.04 Q173.283 1438.04 168.665 1431.17 Q164.082 1424.26 164.082 1411.17 Q164.082 1398.04 168.665 1391.17 Q173.283 1384.26 181.998 1384.26 Z" fill="#000000" fill-rule="nonzero" fill-opacity="1" /><path clip-path="url(#clip570)" d="M70.4017 1058.78 Q64.9851 1058.78 62.2421 1064.12 Q59.5337 1069.44 59.5337 1080.13 Q59.5337 1090.79 62.2421 1096.14 Q64.9851 1101.45 70.4017 1101.45 Q75.8531 1101.45 78.5614 1096.14 Q81.3045 1090.79 81.3045 1080.13 Q81.3045 1069.44 78.5614 1064.12 Q75.8531 1058.78 70.4017 1058.78 M70.4017 1053.22 Q79.117 1053.22 83.7003 1060.13 Q88.3183 1067.01 88.3183 1080.13 Q88.3183 1093.22 83.7003 1100.13 Q79.117 1107.01 70.4017 1107.01 Q61.6865 1107.01 57.0685 1100.13 Q52.4852 1093.22 52.4852 1080.13 Q52.4852 1067.01 57.0685 1060.13 Q61.6865 1053.22 70.4017 1053.22 Z" fill="#000000" fill-rule="nonzero" fill-opacity="1" /><path clip-path="url(#clip570)" d="M100.645 1097.18 L107.971 1097.18 L107.971 1106 L100.645 1106 L100.645 1097.18 Z" fill="#000000" fill-rule="nonzero" fill-opacity="1" /><path clip-path="url(#clip570)" d="M129.29 1100.1 L153.769 1100.1 L153.769 1106 L120.853 1106 L120.853 1100.1 Q124.846 1095.97 131.721 1089.02 Q138.631 1082.04 140.401 1080.03 Q143.769 1076.24 145.089 1073.64 Q146.443 1071 146.443 1068.47 Q146.443 1064.33 143.526 1061.73 Q140.644 1059.12 135.992 1059.12 Q132.693 1059.12 129.013 1060.27 Q125.367 1061.42 121.2 1063.74 L121.2 1056.66 Q125.436 1054.96 129.117 1054.09 Q132.797 1053.22 135.853 1053.22 Q143.908 1053.22 148.7 1057.25 Q153.492 1061.28 153.492 1068.01 Q153.492 1071.21 152.276 1074.09 Q151.096 1076.94 147.936 1080.83 Q147.068 1081.83 142.415 1086.66 Q137.762 1091.45 129.29 1100.1 Z" fill="#000000" fill-rule="nonzero" fill-opacity="1" /><path clip-path="url(#clip570)" d="M168.561 1054.16 L196.096 1054.16 L196.096 1060.06 L174.985 1060.06 L174.985 1072.77 Q176.512 1072.25 178.04 1072.01 Q179.568 1071.73 181.096 1071.73 Q189.776 1071.73 194.846 1076.49 Q199.915 1081.24 199.915 1089.37 Q199.915 1097.74 194.707 1102.39 Q189.498 1107.01 180.019 1107.01 Q176.755 1107.01 173.353 1106.45 Q169.985 1105.9 166.373 1104.78 L166.373 1097.74 Q169.498 1099.44 172.832 1100.27 Q176.165 1101.1 179.88 1101.1 Q185.887 1101.1 189.394 1097.94 Q192.901 1094.78 192.901 1089.37 Q192.901 1083.95 189.394 1080.79 Q185.887 1077.63 179.88 1077.63 Q177.068 1077.63 174.255 1078.26 Q171.478 1078.88 168.561 1080.2 L168.561 1054.16 Z" fill="#000000" fill-rule="nonzero" fill-opacity="1" /><path clip-path="url(#clip570)" d="M68.9087 727.74 Q63.4921 727.74 60.749 733.087 Q58.0407 738.399 58.0407 749.094 Q58.0407 759.753 60.749 765.101 Q63.4921 770.413 68.9087 770.413 Q74.3601 770.413 77.0684 765.101 Q79.8114 759.753 79.8114 749.094 Q79.8114 738.399 77.0684 733.087 Q74.3601 727.74 68.9087 727.74 M68.9087 722.184 Q77.6239 722.184 82.2072 729.094 Q86.8253 735.969 86.8253 749.094 Q86.8253 762.184 82.2072 769.094 Q77.6239 775.969 68.9087 775.969 Q60.1935 775.969 55.5754 769.094 Q50.9921 762.184 50.9921 749.094 Q50.9921 735.969 55.5754 729.094 Q60.1935 722.184 68.9087 722.184 Z" fill="#000000" fill-rule="nonzero" fill-opacity="1" /><path clip-path="url(#clip570)" d="M99.1516 766.142 L106.478 766.142 L106.478 774.962 L99.1516 774.962 L99.1516 766.142 Z" fill="#000000" fill-rule="nonzero" fill-opacity="1" /><path clip-path="url(#clip570)" d="M121.825 723.122 L149.36 723.122 L149.36 729.024 L128.249 729.024 L128.249 741.733 Q129.776 741.212 131.304 740.969 Q132.832 740.691 134.36 740.691 Q143.04 740.691 148.11 745.448 Q153.179 750.205 153.179 758.33 Q153.179 766.698 147.971 771.351 Q142.762 775.969 133.283 775.969 Q130.019 775.969 126.617 775.413 Q123.249 774.858 119.638 773.746 L119.638 766.698 Q122.763 768.399 126.096 769.233 Q129.429 770.066 133.144 770.066 Q139.151 770.066 142.658 766.906 Q146.165 763.747 146.165 758.33 Q146.165 752.913 142.658 749.754 Q139.151 746.594 133.144 746.594 Q130.332 746.594 127.519 747.219 Q124.742 747.844 121.825 749.163 L121.825 723.122 Z" fill="#000000" fill-rule="nonzero" fill-opacity="1" /><path clip-path="url(#clip570)" d="M181.998 727.74 Q176.582 727.74 173.839 733.087 Q171.13 738.399 171.13 749.094 Q171.13 759.753 173.839 765.101 Q176.582 770.413 181.998 770.413 Q187.45 770.413 190.158 765.101 Q192.901 759.753 192.901 749.094 Q192.901 738.399 190.158 733.087 Q187.45 727.74 181.998 727.74 M181.998 722.184 Q190.714 722.184 195.297 729.094 Q199.915 735.969 199.915 749.094 Q199.915 762.184 195.297 769.094 Q190.714 775.969 181.998 775.969 Q173.283 775.969 168.665 769.094 Q164.082 762.184 164.082 749.094 Q164.082 735.969 168.665 729.094 Q173.283 722.184 181.998 722.184 Z" fill="#000000" fill-rule="nonzero" fill-opacity="1" /><path clip-path="url(#clip570)" d="M70.4017 396.702 Q64.9851 396.702 62.2421 402.049 Q59.5337 407.361 59.5337 418.056 Q59.5337 428.715 62.2421 434.063 Q64.9851 439.375 70.4017 439.375 Q75.8531 439.375 78.5614 434.063 Q81.3045 428.715 81.3045 418.056 Q81.3045 407.361 78.5614 402.049 Q75.8531 396.702 70.4017 396.702 M70.4017 391.146 Q79.117 391.146 83.7003 398.056 Q88.3183 404.931 88.3183 418.056 Q88.3183 431.146 83.7003 438.056 Q79.117 444.931 70.4017 444.931 Q61.6865 444.931 57.0685 438.056 Q52.4852 431.146 52.4852 418.056 Q52.4852 404.931 57.0685 398.056 Q61.6865 391.146 70.4017 391.146 Z" fill="#000000" fill-rule="nonzero" fill-opacity="1" /><path clip-path="url(#clip570)" d="M100.645 435.104 L107.971 435.104 L107.971 443.924 L100.645 443.924 L100.645 435.104 Z" fill="#000000" fill-rule="nonzero" fill-opacity="1" /><path clip-path="url(#clip570)" d="M121.478 392.084 L154.811 392.084 L154.811 395.07 L135.992 443.924 L128.665 443.924 L146.374 397.986 L121.478 397.986 L121.478 392.084 Z" fill="#000000" fill-rule="nonzero" fill-opacity="1" /><path clip-path="url(#clip570)" d="M168.561 392.084 L196.096 392.084 L196.096 397.986 L174.985 397.986 L174.985 410.695 Q176.512 410.174 178.04 409.931 Q179.568 409.653 181.096 409.653 Q189.776 409.653 194.846 414.41 Q199.915 419.167 199.915 427.292 Q199.915 435.66 194.707 440.313 Q189.498 444.931 180.019 444.931 Q176.755 444.931 173.353 444.375 Q169.985 443.82 166.373 442.708 L166.373 435.66 Q169.498 437.361 172.832 438.195 Q176.165 439.028 179.88 439.028 Q185.887 439.028 189.394 435.868 Q192.901 432.709 192.901 427.292 Q192.901 421.875 189.394 418.716 Q185.887 415.556 179.88 415.556 Q177.068 415.556 174.255 416.181 Q171.478 416.806 168.561 418.125 L168.561 392.084 Z" fill="#000000" fill-rule="nonzero" fill-opacity="1" /><path clip-path="url(#clip570)" d="M55.124 106.983 L66.5823 106.983 L66.5823 67.4346 L54.1171 69.9346 L54.1171 63.5458 L66.5129 61.0458 L73.5267 61.0458 L73.5267 106.983 L84.985 106.983 L84.985 112.886 L55.124 112.886 L55.124 106.983 Z" fill="#000000" fill-rule="nonzero" fill-opacity="1" /><path clip-path="url(#clip570)" d="M99.1516 104.066 L106.478 104.066 L106.478 112.886 L99.1516 112.886 L99.1516 104.066 Z" fill="#000000" fill-rule="nonzero" fill-opacity="1" /><path clip-path="url(#clip570)" d="M136.756 65.6638 Q131.339 65.6638 128.596 71.011 Q125.888 76.3235 125.888 87.0178 Q125.888 97.6775 128.596 103.025 Q131.339 108.337 136.756 108.337 Q142.207 108.337 144.915 103.025 Q147.658 97.6775 147.658 87.0178 Q147.658 76.3235 144.915 71.011 Q142.207 65.6638 136.756 65.6638 M136.756 60.1083 Q145.471 60.1083 150.054 67.018 Q154.672 73.8929 154.672 87.0178 Q154.672 100.108 150.054 107.018 Q145.471 113.893 136.756 113.893 Q128.04 113.893 123.422 107.018 Q118.839 100.108 118.839 87.0178 Q118.839 73.8929 123.422 67.018 Q128.04 60.1083 136.756 60.1083 Z" fill="#000000" fill-rule="nonzero" fill-opacity="1" /><path clip-path="url(#clip570)" d="M181.998 65.6638 Q176.582 65.6638 173.839 71.011 Q171.13 76.3235 171.13 87.0178 Q171.13 97.6775 173.839 103.025 Q176.582 108.337 181.998 108.337 Q187.45 108.337 190.158 103.025 Q192.901 97.6775 192.901 87.0178 Q192.901 76.3235 190.158 71.011 Q187.45 65.6638 181.998 65.6638 M181.998 60.1083 Q190.714 60.1083 195.297 67.018 Q199.915 73.8929 199.915 87.0178 Q199.915 100.108 195.297 107.018 Q190.714 113.893 181.998 113.893 Q173.283 113.893 168.665 107.018 Q164.082 100.108 164.082 87.0178 Q164.082 73.8929 168.665 67.018 Q173.283 60.1083 181.998 60.1083 Z" fill="#000000" fill-rule="nonzero" fill-opacity="1" /><polyline clip-path="url(#clip572)" style="stroke:#009af9; stroke-linecap:round; stroke-linejoin:round; stroke-width:16; stroke-opacity:1; fill:none" points="235.915,1410.06 241.158,1405.59 246.401,1398.94 251.644,1392.22 256.887,1385.43 264.222,1375.82 271.558,1366.07 278.893,1356.18 286.229,1346.14 289.897,1341.07 293.564,1335.96 295.398,1333.39 297.232,1335.37 299.066,1337.67 300.9,1339.98 308.235,1349.3 315.571,1358.76 322.907,1368.37 330.242,1378.12 337.578,1388.02 344.913,1398.07 348.581,1403.15 352.249,1408.28 354.083,1410.85 355.916,1408.79 357.75,1406.2 359.584,1403.59 366.92,1393.06 374.255,1382.35 384.272,1367.46 394.29,1352.24 399.298,1344.5 404.307,1336.67 406.811,1332.73 409.316,1328.76 410.568,1326.77 411.82,1324.77 413.072,1322.91 414.324,1324.67 419.333,1331.75 424.342,1338.92 429.35,1346.17 434.359,1353.5 444.376,1368.43 454.393,1383.71 458.454,1390.01 462.516,1396.37 466.577,1402.8 470.638,1409.29 472.668,1409.68 474.699,1406.4 476.73,1403.1 478.76,1399.78 482.821,1393.1 486.882,1386.35 503.127,1358.65 519.372,1329.8 523.451,1322.36 527.53,1314.84 529.57,1311.05 531.609,1310.99 533.649,1314.27 535.689,1317.57 543.847,1330.95 552.005,1344.62 560.164,1358.59 568.322,1372.88 576.481,1387.5 584.639,1402.45 587.12,1407.06 589.601,1410.53 592.081,1405.85 594.562,1401.13 599.523,1391.61 604.484,1381.94 614.407,1362.19 624.33,1341.86 629.291,1331.46 634.252,1320.91 639.214,1310.2 644.175,1299.33 645.415,1296.58 646.656,1293.83 647.896,1291.06 649.136,1292.79 651.617,1297.44 654.098,1302.13 659.059,1311.62 664.02,1321.26 680.286,1353.96 696.552,1388.43 700.619,1397.35 704.685,1406.38 705.702,1408.66 706.719,1410.95 707.735,1408.99 708.752,1406.69 710.785,1402.06 712.818,1397.4 720.951,1378.42 729.084,1358.9 737.223,1338.79 745.362,1318.09 749.432,1307.51 753.501,1296.76 757.571,1285.86 761.64,1274.78 763.675,1269.18 765.71,1264.35 767.744,1268.9 769.779,1273.48 773.848,1282.76 777.918,1292.18 786.057,1311.48 794.196,1331.41 804.124,1356.61 814.053,1382.86 816.535,1389.59 819.017,1396.39 821.499,1403.27 823.981,1410.21 825.222,1408.52 826.464,1405 827.705,1401.46 828.946,1397.91 831.428,1390.74 833.91,1383.49 843.839,1353.69 853.767,1322.56 863.696,1289.99 873.624,1255.88 877.694,1241.43 881.763,1226.7 882.781,1222.97 883.798,1224 884.815,1226.83 885.833,1229.67 887.868,1235.39 889.902,1241.17 898.041,1264.87 906.18,1289.57 914.32,1315.33 922.459,1342.21 930.598,1370.3 938.737,1399.67 939.977,1404.26 941.216,1408.89 941.836,1411.02 942.456,1408.69 943.076,1406.35 943.696,1404 946.175,1394.52 948.655,1384.9 953.614,1365.25 958.573,1345.01 968.491,1302.69 978.41,1257.72 983.369,1234.16 988.328,1209.83 990.808,1197.37 993.287,1184.7 995.767,1171.82 998.246,1158.73 999.486,1152.1 1000.73,1146.87 1001.97,1151.36 1003.21,1155.9 1005.68,1165.08 1008.16,1174.42 1013.12,1193.6 1018.08,1213.46 1026.21,1247.62 1034.34,1283.91 1042.47,1322.54 1050.6,1363.75 1052.63,1374.48 1054.66,1385.4 1055.68,1390.93 1056.7,1396.51 1057.71,1402.13 1058.73,1407.8 1059.24,1410.66 1059.75,1408.71 1060.25,1405.83 1060.76,1402.94 1061.78,1397.12 1062.79,1391.25 1064.83,1379.34 1066.86,1367.23 1070.92,1342.34 1074.99,1316.53 1079.05,1289.74 1083.12,1261.93 1087.19,1232.94 1091.27,1202.79 1095.34,1171.4 1099.42,1138.7 1103.49,1104.61 1107.57,1069.02 1111.65,1031.85 1115.72,992.986 1116.74,982.991 1117.76,972.88 1118.27,970.71 1118.78,973.275 1119.29,975.854 1119.8,978.449 1121.83,988.98 1123.87,999.762 1127.95,1022.12 1132.02,1045.6 1136.1,1070.29 1140.17,1096.29 1144.25,1123.69 1148.32,1152.63 1153.29,1190.12 1158.25,1230.35 1163.21,1273.62 1168.17,1320.3 1170.66,1345.04 1173.14,1370.8 1174.38,1384.08 1175.62,1397.63 1176.24,1404.52 1176.86,1410.76 1177.48,1403.73 1178.1,1396.63 1179.34,1382.18 1180.58,1367.43 1181.82,1352.35 1183.06,1336.93 1185.54,1305.03 1188.02,1271.65 1190.51,1236.68 1192.99,1199.99 1195.47,1161.46 1197.95,1120.95 1200.43,1078.29 1202.91,1033.32 1205.39,985.842 1207.87,935.637 1210.36,882.466 1212.84,826.058 1214.08,796.546 1215.32,766.107 1216.56,734.697 1217.8,702.269 1219.04,668.772 1220.28,634.153 1221.52,598.355 1222.76,561.315 1224,522.968 1225.24,483.245 1226.48,442.069 1227.72,399.359 1228.74,363.145 1229.76,325.791 1230.77,287.241 1231.79,247.438 1232.81,206.319 1233.83,163.818 1234.33,142.028 1234.84,119.865 1235.35,97.3194 1235.86,86.9658 1236.37,86.9658 1236.88,86.9658 1237.38,86.9658 1237.89,86.9658 1238.91,86.9658 1239.93,86.9658 1241.96,86.9658 1243.99,86.9658 1252.13,86.9658 1260.27,86.9658 1276.54,86.9658 1292.81,86.9658 1325.33,86.9658 1357.86,86.9658 1377.72,86.9658 1397.58,86.9658 1402.55,86.9658 1407.51,86.9658 1408.75,86.9658 1409.99,86.9658 1410.62,86.9658 1411.24,86.9658 1411.86,87.2599 1412.48,101.172 1413.1,114.938 1413.72,128.561 1414.34,142.043 1414.96,155.387 1416.2,181.666 1417.44,207.415 1419.93,257.386 1422.41,305.42 1424.89,351.627 1427.37,396.11 1429.86,438.962 1432.34,480.273 1434.82,520.124 1437.3,558.591 1441.38,618.85 1445.45,675.863 1449.52,729.885 1453.59,781.145 1457.66,829.85 1461.73,876.186 1465.8,920.322 1469.87,962.411 1473.94,1002.59 1478.01,1040.99 1482.08,1077.73 1486.15,1112.9 1490.22,1146.62 1494.29,1178.96 1498.36,1210.01 1502.44,1239.84 1507.4,1274.66 1512.36,1307.89 1517.32,1339.64 1522.28,1370.01 1524.76,1384.71 1527.24,1399.09 1527.86,1402.64 1528.48,1406.17 1529.1,1409.68 1529.72,1409.06 1530.96,1402.14 1532.2,1395.28 1537.16,1368.55 1542.12,1342.9 1552.04,1294.55 1561.96,1249.78 1571.88,1208.22 1581.8,1169.53 1589.93,1139.74 1598.06,1111.56 1606.19,1084.84 1614.33,1059.49 1622.46,1035.38 1630.59,1012.45 1634.66,1001.39 1638.72,990.596 1640.75,985.293 1642.79,980.052 1643.8,977.455 1644.82,974.872 1645.84,972.305 1646.85,969.752 1647.87,974.781 1648.89,979.835 1649.91,984.861 1650.92,989.858 1652.96,999.766 1655,1009.56 1659.07,1028.83 1663.14,1047.67 1671.28,1084.13 1679.43,1119.04 1687.57,1152.51 1695.71,1184.63 1703.86,1215.46 1712,1245.09 1721.93,1279.69 1731.86,1312.72 1741.78,1344.28 1751.71,1374.47 1756.67,1389.08 1761.64,1403.38 1762.88,1406.9 1764.12,1410.41 1765.36,1408.33 1766.6,1404.86 1769.08,1397.97 1771.56,1391.15 1781.49,1364.58 1791.42,1339.06 1807.69,1299.36 1823.97,1262.11 1840.24,1227.07 1856.52,1194.07 1861.48,1184.39 1866.44,1174.88 1871.39,1165.53 1876.35,1156.34 1878.83,1151.8 1881.31,1147.31 1882.55,1148.11 1883.79,1151.45 1885.03,1154.77 1886.27,1158.08 1891.23,1171.18 1896.19,1184.07 1916.02,1233.56 1935.85,1279.98 1952.11,1315.95 1968.37,1350.18 1976.49,1366.68 1984.62,1382.8 1988.68,1390.71 1992.75,1398.54 1994.78,1402.41 1996.81,1406.27 1997.83,1408.19 1998.84,1410.1 1999.86,1410.23 2000.88,1408.32 2004.95,1400.74 2009.03,1393.24 2013.11,1385.83 2017.19,1378.51 2025.34,1364.1 2033.5,1350.01 2049.81,1322.74 2066.12,1296.62 2085.97,1266.29 2105.82,1237.45 2110.78,1230.46 2115.74,1223.55 2116.98,1222.11 2118.22,1224.39 2119.46,1226.66 2120.7,1228.93 2123.18,1233.43 2125.66,1237.92 2135.59,1255.58 2145.51,1272.83 2177.84,1326.35 2210.17,1376.09 2217.57,1386.98 2224.97,1397.7 2228.67,1403 2232.37,1408.25 2234.22,1410.87 2236.07,1408.77 2237.92,1406.18 2239.77,1403.6 2247.17,1393.37 2254.57,1383.3 2261.97,1373.39 2269.37,1363.63 2298.97,1326.01 2328.57,1290.55 2334.62,1283.56 2340.66,1276.64 2346.71,1269.81 2352.76,1265.17 "/>
<path clip-path="url(#clip570)" d="M1416.8 249.547 L2282.19 249.547 L2282.19 94.0274 L1416.8 94.0274  Z" fill="#ffffff" fill-rule="evenodd" fill-opacity="1"/>
<polyline clip-path="url(#clip570)" style="stroke:#000000; stroke-linecap:round; stroke-linejoin:round; stroke-width:4; stroke-opacity:1; fill:none" points="1416.8,249.547 2282.19,249.547 2282.19,94.0274 1416.8,94.0274 1416.8,249.547 "/>
<polyline clip-path="url(#clip570)" style="stroke:#009af9; stroke-linecap:round; stroke-linejoin:round; stroke-width:24; stroke-opacity:1; fill:none" points="1440.32,171.787 1581.44,171.787 "/>
<path clip-path="url(#clip570)" d="M1625.07 178.159 Q1617.32 178.159 1614.34 179.93 Q1611.35 181.701 1611.35 185.971 Q1611.35 189.374 1613.57 191.388 Q1615.83 193.367 1619.68 193.367 Q1625 193.367 1628.19 189.617 Q1631.42 185.832 1631.42 179.582 L1631.42 178.159 L1625.07 178.159 M1637.81 175.52 L1637.81 197.707 L1631.42 197.707 L1631.42 191.805 Q1629.23 195.346 1625.97 197.048 Q1622.71 198.714 1617.98 198.714 Q1612.01 198.714 1608.47 195.381 Q1604.96 192.013 1604.96 186.388 Q1604.96 179.826 1609.34 176.492 Q1613.75 173.159 1622.46 173.159 L1631.42 173.159 L1631.42 172.534 Q1631.42 168.124 1628.5 165.728 Q1625.62 163.298 1620.38 163.298 Q1617.05 163.298 1613.89 164.096 Q1610.73 164.895 1607.81 166.492 L1607.81 160.59 Q1611.32 159.235 1614.62 158.576 Q1617.91 157.881 1621.04 157.881 Q1629.48 157.881 1633.64 162.256 Q1637.81 166.631 1637.81 175.52 Z" fill="#000000" fill-rule="nonzero" fill-opacity="1" /><path clip-path="url(#clip570)" d="M1678.89 178.298 Q1678.89 171.249 1675.97 167.256 Q1673.09 163.228 1668.02 163.228 Q1662.95 163.228 1660.03 167.256 Q1657.15 171.249 1657.15 178.298 Q1657.15 185.346 1660.03 189.374 Q1662.95 193.367 1668.02 193.367 Q1673.09 193.367 1675.97 189.374 Q1678.89 185.346 1678.89 178.298 M1657.15 164.721 Q1659.16 161.249 1662.22 159.583 Q1665.31 157.881 1669.58 157.881 Q1676.66 157.881 1681.07 163.506 Q1685.52 169.131 1685.52 178.298 Q1685.52 187.464 1681.07 193.089 Q1676.66 198.714 1669.58 198.714 Q1665.31 198.714 1662.22 197.048 Q1659.16 195.346 1657.15 191.874 L1657.15 197.707 L1650.73 197.707 L1650.73 143.68 L1657.15 143.68 L1657.15 164.721 Z" fill="#000000" fill-rule="nonzero" fill-opacity="1" /><path clip-path="url(#clip570)" d="M1720.9 159.965 L1720.9 166.006 Q1718.19 164.617 1715.27 163.923 Q1712.36 163.228 1709.23 163.228 Q1704.48 163.228 1702.08 164.687 Q1699.72 166.145 1699.72 169.062 Q1699.72 171.284 1701.42 172.569 Q1703.12 173.819 1708.26 174.964 L1710.45 175.451 Q1717.25 176.909 1720.1 179.582 Q1722.98 182.221 1722.98 186.978 Q1722.98 192.395 1718.68 195.555 Q1714.41 198.714 1706.91 198.714 Q1703.78 198.714 1700.38 198.089 Q1697.01 197.499 1693.26 196.284 L1693.26 189.687 Q1696.8 191.527 1700.24 192.464 Q1703.68 193.367 1707.05 193.367 Q1711.56 193.367 1713.99 191.839 Q1716.42 190.277 1716.42 187.464 Q1716.42 184.86 1714.65 183.471 Q1712.91 182.082 1706.98 180.798 L1704.75 180.277 Q1698.82 179.027 1696.18 176.458 Q1693.54 173.853 1693.54 169.339 Q1693.54 163.853 1697.43 160.867 Q1701.32 157.881 1708.47 157.881 Q1712.01 157.881 1715.14 158.402 Q1718.26 158.923 1720.9 159.965 Z" fill="#000000" fill-rule="nonzero" fill-opacity="1" /><path clip-path="url(#clip570)" d="M1748.5 143.749 Q1743.85 151.735 1741.59 159.548 Q1739.34 167.36 1739.34 175.381 Q1739.34 183.402 1741.59 191.284 Q1743.89 199.131 1748.5 207.082 L1742.95 207.082 Q1737.74 198.923 1735.14 191.041 Q1732.57 183.159 1732.57 175.381 Q1732.57 167.638 1735.14 159.791 Q1737.7 151.944 1742.95 143.749 L1748.5 143.749 Z" fill="#000000" fill-rule="nonzero" fill-opacity="1" /><path clip-path="url(#clip570)" d="M1780.59 143.68 L1780.59 148.992 L1774.48 148.992 Q1771.04 148.992 1769.68 150.381 Q1768.36 151.77 1768.36 155.381 L1768.36 158.819 L1778.88 158.819 L1778.88 163.784 L1768.36 163.784 L1768.36 197.707 L1761.94 197.707 L1761.94 163.784 L1755.83 163.784 L1755.83 158.819 L1761.94 158.819 L1761.94 156.11 Q1761.94 149.617 1764.96 146.666 Q1767.98 143.68 1774.54 143.68 L1780.59 143.68 Z" fill="#000000" fill-rule="nonzero" fill-opacity="1" /><path clip-path="url(#clip570)" d="M1801.28 143.749 Q1796.63 151.735 1794.37 159.548 Q1792.11 167.36 1792.11 175.381 Q1792.11 183.402 1794.37 191.284 Q1796.66 199.131 1801.28 207.082 L1795.73 207.082 Q1790.52 198.923 1787.91 191.041 Q1785.34 183.159 1785.34 175.381 Q1785.34 167.638 1787.91 159.791 Q1790.48 151.944 1795.73 143.749 L1801.28 143.749 Z" fill="#000000" fill-rule="nonzero" fill-opacity="1" /><path clip-path="url(#clip570)" d="M1846 158.819 L1831.94 177.742 L1846.73 197.707 L1839.2 197.707 L1827.88 182.43 L1816.56 197.707 L1809.02 197.707 L1824.13 177.36 L1810.31 158.819 L1817.84 158.819 L1828.16 172.673 L1838.47 158.819 L1846 158.819 Z" fill="#000000" fill-rule="nonzero" fill-opacity="1" /><path clip-path="url(#clip570)" d="M1854.75 143.749 L1860.31 143.749 Q1865.52 151.944 1868.09 159.791 Q1870.69 167.638 1870.69 175.381 Q1870.69 183.159 1868.09 191.041 Q1865.52 198.923 1860.31 207.082 L1854.75 207.082 Q1859.37 199.131 1861.63 191.284 Q1863.92 183.402 1863.92 175.381 Q1863.92 167.36 1861.63 159.548 Q1859.37 151.735 1854.75 143.749 Z" fill="#000000" fill-rule="nonzero" fill-opacity="1" /><path clip-path="url(#clip570)" d="M1902.88 175.381 L1921.59 175.381 L1921.59 181.076 L1902.88 181.076 L1902.88 175.381 Z" fill="#000000" fill-rule="nonzero" fill-opacity="1" /><path clip-path="url(#clip570)" d="M1986.7 158.819 L1972.63 177.742 L1987.43 197.707 L1979.89 197.707 L1968.57 182.43 L1957.25 197.707 L1949.72 197.707 L1964.82 177.36 L1951 158.819 L1958.54 158.819 L1968.85 172.673 L1979.16 158.819 L1986.7 158.819 Z" fill="#000000" fill-rule="nonzero" fill-opacity="1" /><path clip-path="url(#clip570)" d="M1995.45 143.749 L2001 143.749 Q2006.21 151.944 2008.78 159.791 Q2011.38 167.638 2011.38 175.381 Q2011.38 183.159 2008.78 191.041 Q2006.21 198.923 2001 207.082 L1995.45 207.082 Q2000.06 199.131 2002.32 191.284 Q2004.61 183.402 2004.61 175.381 Q2004.61 167.36 2002.32 159.548 Q2000.06 151.735 1995.45 143.749 Z" fill="#000000" fill-rule="nonzero" fill-opacity="1" /><path clip-path="url(#clip570)" d="M2035.55 145.867 L2041.45 145.867 L2023.4 204.305 L2017.49 204.305 L2035.55 145.867 Z" fill="#000000" fill-rule="nonzero" fill-opacity="1" /><path clip-path="url(#clip570)" d="M2065.83 178.159 Q2058.08 178.159 2055.1 179.93 Q2052.11 181.701 2052.11 185.971 Q2052.11 189.374 2054.33 191.388 Q2056.59 193.367 2060.45 193.367 Q2065.76 193.367 2068.95 189.617 Q2072.18 185.832 2072.18 179.582 L2072.18 178.159 L2065.83 178.159 M2078.57 175.52 L2078.57 197.707 L2072.18 197.707 L2072.18 191.805 Q2069.99 195.346 2066.73 197.048 Q2063.47 198.714 2058.74 198.714 Q2052.77 198.714 2049.23 195.381 Q2045.72 192.013 2045.72 186.388 Q2045.72 179.826 2050.1 176.492 Q2054.51 173.159 2063.22 173.159 L2072.18 173.159 L2072.18 172.534 Q2072.18 168.124 2069.27 165.728 Q2066.38 163.298 2061.14 163.298 Q2057.81 163.298 2054.65 164.096 Q2051.49 164.895 2048.57 166.492 L2048.57 160.59 Q2052.08 159.235 2055.38 158.576 Q2058.68 157.881 2061.8 157.881 Q2070.24 157.881 2074.4 162.256 Q2078.57 166.631 2078.57 175.52 Z" fill="#000000" fill-rule="nonzero" fill-opacity="1" /><path clip-path="url(#clip570)" d="M2119.65 178.298 Q2119.65 171.249 2116.73 167.256 Q2113.85 163.228 2108.78 163.228 Q2103.71 163.228 2100.79 167.256 Q2097.91 171.249 2097.91 178.298 Q2097.91 185.346 2100.79 189.374 Q2103.71 193.367 2108.78 193.367 Q2113.85 193.367 2116.73 189.374 Q2119.65 185.346 2119.65 178.298 M2097.91 164.721 Q2099.92 161.249 2102.98 159.583 Q2106.07 157.881 2110.34 157.881 Q2117.42 157.881 2121.83 163.506 Q2126.28 169.131 2126.28 178.298 Q2126.28 187.464 2121.83 193.089 Q2117.42 198.714 2110.34 198.714 Q2106.07 198.714 2102.98 197.048 Q2099.92 195.346 2097.91 191.874 L2097.91 197.707 L2091.49 197.707 L2091.49 143.68 L2097.91 143.68 L2097.91 164.721 Z" fill="#000000" fill-rule="nonzero" fill-opacity="1" /><path clip-path="url(#clip570)" d="M2161.66 159.965 L2161.66 166.006 Q2158.95 164.617 2156.04 163.923 Q2153.12 163.228 2149.99 163.228 Q2145.24 163.228 2142.84 164.687 Q2140.48 166.145 2140.48 169.062 Q2140.48 171.284 2142.18 172.569 Q2143.88 173.819 2149.02 174.964 L2151.21 175.451 Q2158.01 176.909 2160.86 179.582 Q2163.74 182.221 2163.74 186.978 Q2163.74 192.395 2159.44 195.555 Q2155.17 198.714 2147.67 198.714 Q2144.54 198.714 2141.14 198.089 Q2137.77 197.499 2134.02 196.284 L2134.02 189.687 Q2137.56 191.527 2141 192.464 Q2144.44 193.367 2147.81 193.367 Q2152.32 193.367 2154.75 191.839 Q2157.18 190.277 2157.18 187.464 Q2157.18 184.86 2155.41 183.471 Q2153.67 182.082 2147.74 180.798 L2145.51 180.277 Q2139.58 179.027 2136.94 176.458 Q2134.3 173.853 2134.3 169.339 Q2134.3 163.853 2138.19 160.867 Q2142.08 157.881 2149.23 157.881 Q2152.77 157.881 2155.9 158.402 Q2159.02 158.923 2161.66 159.965 Z" fill="#000000" fill-rule="nonzero" fill-opacity="1" /><path clip-path="url(#clip570)" d="M2189.26 143.749 Q2184.61 151.735 2182.36 159.548 Q2180.1 167.36 2180.1 175.381 Q2180.1 183.402 2182.36 191.284 Q2184.65 199.131 2189.26 207.082 L2183.71 207.082 Q2178.5 198.923 2175.9 191.041 Q2173.33 183.159 2173.33 175.381 Q2173.33 167.638 2175.9 159.791 Q2178.47 151.944 2183.71 143.749 L2189.26 143.749 Z" fill="#000000" fill-rule="nonzero" fill-opacity="1" /><path clip-path="url(#clip570)" d="M2233.99 158.819 L2219.92 177.742 L2234.72 197.707 L2227.18 197.707 L2215.86 182.43 L2204.54 197.707 L2197.01 197.707 L2212.11 177.36 L2198.29 158.819 L2205.83 158.819 L2216.14 172.673 L2226.45 158.819 L2233.99 158.819 Z" fill="#000000" fill-rule="nonzero" fill-opacity="1" /><path clip-path="url(#clip570)" d="M2242.74 143.749 L2248.29 143.749 Q2253.5 151.944 2256.07 159.791 Q2258.67 167.638 2258.67 175.381 Q2258.67 183.159 2256.07 191.041 Q2253.5 198.923 2248.29 207.082 L2242.74 207.082 Q2247.35 199.131 2249.61 191.284 Q2251.9 183.402 2251.9 175.381 Q2251.9 167.36 2249.61 159.548 Q2247.35 151.735 2242.74 143.749 Z" fill="#000000" fill-rule="nonzero" fill-opacity="1" /></svg>
